<?xml version="1.0" encoding="UTF-8"?>
<svg width="1745px" height="1000px" viewBox="0 0 1745 1000" version="1.1" xmlns="http://www.w3.org/2000/svg" xmlns:xlink="http://www.w3.org/1999/xlink">
    <!-- Generator: Sketch 56.3 (81716) - https://sketch.com -->
    <title>894</title>
    <desc>Created with Sketch.</desc>
    <defs>
        <polygon id="path-1" points="0.024 0.04 210.116 0.04 210.116 256.299 0.024 256.299"></polygon>
        <polygon id="path-3" points="0.385 0.04 324.19 0.04 324.19 258.141 0.385 258.141"></polygon>
        <polygon id="path-5" points="0.601 0.04 279.62 0.04 279.62 215.582 0.601 215.582"></polygon>
        <polygon id="path-7" points="0 0.04 105.806 0.04 105.806 52.12 0 52.12"></polygon>
        <polygon id="path-9" points="0.301 0.04 220.893 0.04 220.893 40.831 0.301 40.831"></polygon>
    </defs>
    <g id="894" stroke="none" stroke-width="1" fill="none" fill-rule="evenodd" opacity="0.444126674">
        <path d="M1010.22,809.098 L1011.48,808.401 L1011.83,808.566 L1011.55,808.967 L1010.22,809.098 M1013.26,808.798 L1013.19,808.596 L1085.55,768.508 L1014.94,807.628 L1070.07,802.193 L1069.56,803.249 L1013.26,808.798 M1070.72,803.134 L1071.23,802.078 L1120.08,797.262 L1121.16,798.161 L1070.72,803.134 M1122.56,798.023 L1121.48,797.124 L1175.04,791.844 L1176.14,792.74 L1122.56,798.023 M1177.56,792.601 L1176.45,791.705 L1215.94,787.811 L1215.41,788.87 L1177.56,792.601 M1216.59,788.753 L1217.12,787.695 L1329.79,776.586 L1332,777.374 L1216.59,788.753 M1333.44,777.233 L1332.3,776.419 L1334.34,777.144 L1333.44,777.233 M1086.49,767.988 L1086.49,767.988 L1086.63,767.91 L1086.63,767.911 L1086.49,767.988 M1088.15,767.07 L1088.15,767.07 L1121.72,748.473 L1088.15,767.07 M1122.66,747.951 L1122.66,747.951 L1172.37,720.414 L1122.66,747.951 M1152.26,730.412 L1171.58,719.708 L1152.26,730.412" id="Fill-3" fill="#A7C7C7"></path>
        <path d="M1013.19,808.596 L1013.14,808.439 L1013.33,808.161 L1013.19,808.096 L1013.44,807.315 L1084.73,767.821 L1085.55,768.508 L1013.19,808.596 M1086.49,767.988 L1085.67,767.302 L1087.39,766.349 L1086.63,767.91 L1086.49,767.988 M1088.15,767.07 L1088.9,765.509 L1120.88,747.793 L1121.72,748.473 L1088.15,767.07 M1122.66,747.951 L1121.82,747.271 L1152.26,730.412 L1171.58,719.708 L1172.01,720.288 L1172.15,720.338 L1172.32,719.867 L1172.72,719.567 L1172.32,719.867 L1172.15,720.338 L1172.37,720.414 L1122.66,747.951 M1052.2,685.872 L1053.36,682.218 L1052.2,685.872 M1053.71,681.151 L1067.72,637.253 L1053.71,681.151 M1068.03,636.271 L1068.03,636.271 L1080.26,597.949 L1080.26,597.95 L1068.03,636.271 M1079.97,596.184 L1079.81,596.069 L1079.9,595.799 L1080.08,596.041 L1079.97,596.184" id="Fill-4" fill="#A7C7C7"></path>
        <path d="M1010.59,1000 L1009.2,1000 L1012.13,996.978 L1013.07,997.443 L1010.59,1000 M975.59,1000 L974.478,1000 L982.9,982.573 L983.798,983.015 L975.59,1000 M1013.81,996.689 L1012.86,996.224 L1035.55,972.883 L1036.24,973.608 L1013.81,996.689 M984.233,982.115 L983.335,981.672 L1003.75,939.435 L1004.48,940.21 L984.233,982.115 M1036.94,972.89 L1036.25,972.165 L1056.3,951.536 L1056.73,952.522 L1036.94,972.89 M1057.48,951.749 L1057.05,950.763 L1060.7,947.008 L1061.07,948.062 L1057.48,951.749 M1061.85,947.261 L1061.48,946.207 L1101.28,905.251 L1103.04,904.87 L1061.85,947.261 M1004.95,939.248 L1004.21,938.473 L1010.83,924.784 L1012.07,924.516 L1004.95,939.248 M1011.38,923.641 L1028.38,888.456 L1028.91,889.656 L1012.62,923.373 L1011.38,923.641 M1102.54,903.956 L1112.54,893.671 C1113.05,893.645 1113.56,893.6 1114.06,893.539 L1104.3,903.575 L1102.54,903.956 M1029.48,888.475 L1028.95,887.275 L1035.2,874.342 L1035.67,875.674 L1029.48,888.475 M1036.28,874.403 L1035.81,873.071 L1058.24,826.669 L1059.3,826.772 L1036.28,874.403 M1132.82,874.238 C1132.86,873.734 1132.89,873.226 1132.9,872.712 L1167.35,837.272 L1168.62,837.396 L1132.82,874.238 M1168.43,836.875 L1168.43,836.875 L1168.48,836.377 L1168.43,836.875 L1168.75,836.49 L1168.4,836.194 L1195.4,808.407 L1176.14,792.74 L1175.04,791.844 L1121.72,748.473 L1120.88,747.793 L1104.07,734.121 L1088.9,765.509 L1088.15,767.07 L1087.36,768.709 L1086.57,768.049 L1086.63,767.911 L1086.63,767.91 L1087.39,766.349 L1103.27,733.473 L1104.23,734.249 L1104.44,733.134 L1121.82,747.271 L1122.66,747.951 L1176.45,791.705 L1177.56,792.601 L1195.64,807.312 L1195.64,809.595 L1169.17,836.836 L1168.75,836.49 L1168.43,836.875 M1059.76,825.812 L1058.7,825.709 L1069.56,803.249 L1086.12,768.977 L1086.91,769.637 L1059.76,825.812 M1196.85,808.355 L1196.47,807.988 L1196.88,808.32 L1196.85,808.355" id="Fill-5" fill="#A7C7C7"></path>
        <path d="M1011.83,808.566 L1011.48,808.401 L989.509,798.148 L989.508,798.148 L1011.83,808.566 M1013.19,808.096 L1012.98,807.999 L1012.73,807.274 L1012.41,807.732 L1012.28,807.67 L1037.54,728.522 L1038.37,729.212 L1013.44,807.315 L1013.19,808.096 M988.13,797.505 L955.994,782.508 L988.13,797.505 M1038.69,728.184 L1037.87,727.494 L1049.79,690.144 L1050.62,690.82 L1038.69,728.184 M1050.95,689.797 L1050.11,689.122 L1052.26,682.395 L1053.36,682.218 L1052.2,685.872 L1050.95,689.797 M1014.25,685.471 L1025.5,670.474 L1014.25,685.471 M1052.6,681.327 L1066.84,636.712 L1067.72,637.253 L1053.71,681.151 L1052.6,681.327 M1026.1,669.673 L1026.1,669.673 L1055.89,629.96 L1026.1,669.673 M1068.03,636.271 L1067.15,635.73 L1078.7,599.543 L1056.49,629.157 L1080.08,597.707 L1080.26,597.949 L1068.03,636.271 M1080.2,596.346 L1079.97,596.184 L1080.08,596.041 L1081.45,594.205 L1080.8,596.242 L1080.2,596.346" id="Fill-6" fill="#A7C7C7"></path>
        <path d="M914.349,950.815 L914.673,948.951 L915.395,949.307 L914.349,950.815 M915.971,948.476 L915.971,948.476 L931.893,925.529 L931.893,925.53 L915.971,948.476 M914.756,948.473 L943.76,781.564 L944.296,780.21 L943.607,788.282 L916.11,946.522 L914.756,948.473 M933.038,923.88 L933.038,923.88 L1000.82,826.186 L933.038,923.88 M1001.49,825.224 L1001.49,825.224 L1004.14,821.412 L1001.49,825.224 M1004.79,820.47 L1004.79,820.47 L1012.43,809.453 L1004.79,820.47 M1011.83,808.566 L989.508,798.148 L988.893,796.757 L1012.28,807.67 L1012.41,807.732 L1012.17,808.078 L1011.83,808.566 M1013.14,808.439 L1012.98,807.999 L1013.19,808.096 L1013.33,808.161 L1013.14,808.439 M988.13,797.505 L946.545,778.099 L945.902,776.702 L945.906,776.697 L987.515,796.114 L988.13,797.505" id="Fill-7" fill="#A7C7C7"></path>
        <path d="M1080.35,1000 L1079.29,1000 L1049.94,916.338 L1050.92,916.126 L1080.35,1000 M1020.53,1000 L1018.26,1000 L1013.07,997.443 L1012.13,996.978 L983.798,983.015 L982.9,982.573 L930.243,956.624 L930.334,955.554 L983.335,981.672 L984.233,982.115 L1012.86,996.224 L1013.81,996.689 L1020.53,1000 M929.28,956.149 L915.395,949.307 L914.673,948.951 L914.488,948.859 L932.064,923.529 L931.893,925.529 L915.971,948.476 L929.371,955.079 L929.28,956.149 M933.038,923.88 L933.208,921.879 L1000.35,825.115 L1000.82,826.186 L933.038,923.88 M1049.6,915.387 L1035.67,875.674 L1035.2,874.342 L1017.07,822.669 L1018.17,822.775 L1035.81,873.071 L1036.28,874.403 L1050.59,915.174 L1049.6,915.387 M1001.49,825.224 L1001.02,824.153 L1003,821.301 L1004.14,821.412 L1001.49,825.224 M1017.8,821.735 L1016.71,821.628 L1012.43,809.453 L1004.79,820.47 L1003.65,820.359 L1011.55,808.967 L1011.83,808.566 L1012.17,808.078 L1012.41,807.732 L1012.73,807.274 L1012.98,807.999 L1013.14,808.439 L1013.19,808.596 L1013.26,808.798 L1017.8,821.735 M1012.58,808.363 L1012.11,808.529 L1012.58,808.363" id="Fill-8" fill="#A7C7C7"></path>
        <path d="M945.875,776.644 L945.786,776.451 L945.956,776.022 L945.641,776.135 L945.399,775.611 L966.18,747.904 L966.643,748.952 L945.875,776.644 M943.939,775.864 L941.332,774.811 L943.939,775.864 M967.331,748.035 L966.867,746.987 L1002.56,699.395 L1003.33,700.036 L967.331,748.035 M759.299,702.414 L709.69,682.39 L759.299,702.414 M1003.93,699.235 L1003.16,698.594 L1010.29,689.096 L1011.71,688.869 L1003.93,699.235 M1011.15,687.945 L1024.72,669.844 L1025.5,670.474 L1014.25,685.471 L1012.57,687.719 L1011.15,687.945 M708.759,682.014 L678.731,669.894 L678.73,669.893 L708.759,682.014 M1026.1,669.673 L1025.33,669.043 L1055.03,629.433 L1055.89,629.96 L1026.1,669.673 M671.964,667.162 L670.544,666.589 L671.699,666.391 L671.808,666.708 L671.597,667.014 L671.964,667.162 M674.183,666.979 L673.499,666.703 L675.02,665.821 L711.655,659.54 L713.741,660.196 L674.183,666.979 M715.897,659.827 L713.811,659.17 L862.993,633.59 L863.519,634.514 L715.897,659.827 M864.567,634.334 L864.041,633.41 L877.745,631.06 L878.177,632.001 L864.567,634.334 M879.197,631.826 L878.765,630.885 L913.201,624.98 L914.211,625.822 L879.197,631.826 M1056.49,629.157 L1055.64,628.63 L1078.92,597.579 L1021.3,607.459 L1020.01,606.665 L1079.19,596.519 L1080.08,597.707 L1056.49,629.157 M915.507,625.6 L914.497,624.758 L959.535,617.036 L960.568,617.873 L915.507,625.6 M961.88,617.648 L960.846,616.811 L983.616,612.906 L983.116,614.007 L961.88,617.648 M984.307,613.803 L984.807,612.702 L1018.52,606.921 L1019.81,607.715 L984.307,613.803 M1080.78,596.765 L1080.2,596.346 L1080.8,596.242 L1081.23,596.168 L1080.78,596.765" id="Fill-9" fill="#A7C7C7"></path>
        <path d="M916.952,809 L893.962,795.686 L895.195,795.245 L916.749,807.727 L943.394,778.001 L944.212,777.708 L943.588,779.284 L916.952,809 M892.828,795.03 L891.535,794.281 L892.826,793.873 L894.061,794.589 L892.828,795.03 M890.362,793.602 L707.104,687.48 L707.558,686.587 L891.654,793.195 L890.362,793.602 M706.237,686.978 L675.419,669.132 L676.439,668.969 L678.731,669.893 L678.73,669.893 L706.691,686.085 L706.237,686.978 M674.048,668.338 L672.512,667.448 L672.547,667.398 L674.641,668.243 L674.048,668.338" id="Fill-10" fill="#A7C7C7"></path>
        <path d="M943.605,776.807 L709.69,682.39 L710.145,681.495 L941.332,774.811 L943.939,775.864 L844.073,600.337 L843.162,596.751 L842.678,596.874 L843.112,596.627 L842.678,596.874 L843.162,596.751 L843.146,596.684 L941.553,769.648 L944.692,776.465 L943.605,776.807 M708.759,682.014 L678.731,669.893 L676.439,668.969 L678.354,668.663 L709.214,681.119 L708.759,682.014 M674.641,668.243 L672.547,667.398 L672.711,667.161 L673.499,666.703 L674.183,666.979 L676.556,667.937 L674.641,668.243 M671.964,667.162 L671.597,667.014 L671.808,666.708 L671.964,667.162 M672.514,665.686 L672.514,665.686 L682.991,650.517 L672.514,665.686 M683.586,649.656 L683.586,649.656 L771.63,522.187 L683.586,649.656 M841.282,593.409 L817.571,551.733 L841.281,593.407 L841.282,593.409 M816.504,549.858 L816.504,549.858 L815.757,548.546 L816.504,549.858 M772.199,521.364 L772.198,521.364 L778.528,512.2 L772.199,521.364 M779.099,511.374 L779.099,511.374 L786.822,500.191 L779.099,511.374" id="Fill-11" fill="#A7C7C7"></path>
        <path d="M672.212,667.883 L664.204,644.604 L665.391,644.977 L672.514,665.686 L682.991,650.517 L683.99,650.831 L674.043,665.232 L672.112,666.352 L672.614,667.217 L672.711,667.161 L672.547,667.398 L672.512,667.448 L672.212,667.883 M684.584,649.97 L683.586,649.656 L771.63,522.187 L772.471,522.728 L684.584,649.97 M664.986,643.801 L663.8,643.428 L610.507,488.497 L610.998,486.849 L664.986,643.801 M773.04,521.905 L772.199,521.364 L778.528,512.2 L779.297,512.847 L773.04,521.905 M779.867,512.02 L779.099,511.374 L786.823,500.191 L787.09,500.324 L787.147,500.956 L787.334,500.81 L787.432,501.069 L779.867,512.02 M786.984,499.155 L732.532,472.191 L786.983,499.155 L786.984,499.155 M609.948,486.871 L579.618,398.698 L580.976,399.571 L610.438,485.222 L609.948,486.871 M728.757,470.322 L719.857,465.915 L728.757,470.322 M580.451,398.045 L580.133,397.841 L580.431,397.988 L580.451,398.045 M578.94,396.728 L578.694,396.012 L579.437,396.38 L579.258,396.588 L578.94,396.728" id="Fill-12" fill="#A7C7C7"></path>
        <path d="M672.614,667.217 L672.112,666.352 L693.638,653.868 L694.93,654.275 L673.499,666.703 L672.711,667.161 L672.614,667.217 M696.102,653.596 L694.81,653.189 L817.945,581.78 L803.057,542.399 L804.469,543.307 L819.18,582.22 L696.102,653.596 M803.875,541.736 L802.463,540.828 L797.757,528.38 L799.324,529.699 L803.875,541.736 M798.6,527.782 L797.032,526.463 L787.334,500.81 L787.413,500.749 L790.294,505.812 L798.6,527.782" id="Fill-13" fill="#A7C7C7"></path>
        <path d="M787.09,500.324 L786.822,500.191 L735.755,474.903 L732.532,472.191 L786.984,499.155 L787.09,500.324 M731.981,473.034 L630.118,422.592 L630.407,421.62 L728.757,470.322 L731.981,473.034 M629.208,422.142 L580.431,397.988 L580.133,397.841 L579.63,397.517 L579.764,397.458 L580.743,397.027 L629.498,421.17 L629.208,422.142 M578.875,397.031 L578.621,396.868 L578.94,396.728 L579.258,396.588 L578.875,397.031 M581.386,395.652 L581.386,395.652 L619.89,378.718 L581.386,395.652 M620.91,378.27 L620.909,378.27 L645.478,367.465 L620.91,378.27 M646.678,366.937 L646.678,366.937 L710.438,338.896 L646.678,366.937 M770.152,314.012 L770.127,313.738 L770.152,314.012" id="Fill-14" fill="#A7C7C7"></path>
        <path d="M577.739,398.348 L578.215,397.796 L578.532,397.999 L577.739,398.348 M579.63,397.517 L578.875,397.031 L579.258,396.588 L579.437,396.38 L604.03,367.875 L605.916,366.96 L606.045,367.069 L581.386,395.652 L619.89,378.718 L620.742,379.436 L580.743,397.027 L579.764,397.458 L579.63,397.517 M579.563,397 L579.941,397.327 L579.563,397 M621.762,378.987 L620.91,378.27 L645.478,367.465 L645.104,368.722 L621.762,378.987 M646.304,368.194 L646.678,366.937 L768.183,313.5 L770.106,313.5 L770.127,313.738 L646.304,368.194 M606.063,365.778 L605.933,365.668 L613.893,356.443 L615.409,356.216 L607.949,364.863 L606.063,365.778 M614.894,355.282 L622.852,346.058 L623.673,346.637 L616.41,355.056 L614.894,355.282 M624.205,345.788 L623.509,345.297 L623.556,345.242 L624.205,345.788 M624.975,345.128 L624.21,344.484 L629.365,338.509 L629.666,339.691 L624.975,345.128 M630.462,338.768 L630.162,337.585 L650.941,313.5 L652.262,313.5 L630.462,338.768 M772.084,312.877 L771.458,312.715 L771.506,312.657 L772.277,312.792 L772.084,312.877 M769.863,312.5 L764.798,312.5 L667.915,295.569 L668.202,294.604 L769.815,312.362 L769.863,312.5 M653.125,312.5 L651.804,312.5 L664.806,297.43 L666.69,296.179 L666.418,297.091 L653.125,312.5 M667.229,294.621 L667.369,294.459 L667.452,294.473 L667.229,294.621" id="Fill-15" fill="#A7C7C7"></path>
        <path d="M787.147,500.956 L787.09,500.324 L786.984,499.155 L786.983,499.155 L784.835,475.518 L787.074,500.153 L787.413,500.749 L787.334,500.81 L787.147,500.956 M788.211,500.129 L788.051,499.847 L785.919,476.396 L787.978,499.044 L801.198,488.773 L801.996,489.42 L788.211,500.129 M802.807,488.79 L802.009,488.143 L808.217,483.32 C808.318,483.657 808.437,483.987 808.575,484.308 L802.807,488.79 M785.793,475.007 L785.793,475.007 L784.677,462.736 L785.793,475.007 M784.708,474.129 L784.708,474.129 L783.613,462.08 L784.708,474.129 M822.639,473.382 C822.362,473.169 822.072,472.972 821.77,472.791 L923.003,394.143 L923.797,394.793 L822.639,473.382 M784.564,461.492 L784.564,461.492 L771.632,319.24 L784.564,461.492 M783.5,460.836 L783.5,460.836 L770.127,313.738 L770.106,313.5 L783.5,460.836 M924.607,394.163 L923.813,393.513 L962.793,363.23 L964.016,363.546 L924.607,394.163 M963.904,363 L963.904,363 L964.204,362.6 L964.125,362.54 L965.014,362.771 L964.729,362.993 L964.204,362.6 L963.904,363 M961.574,361.881 L860.399,335.716 L961.574,361.881 M858.676,335.27 L771.458,312.715 L772.084,312.877 L858.676,335.27 M800.603,321.285 L771.255,313.696 L800.603,321.285" id="Fill-16" fill="#A7C7C7"></path>
        <path d="M966.235,364.12 L964.016,363.546 L962.793,363.23 L858.723,336.316 L860.399,335.716 L961.574,361.881 L905.188,319.692 L906.317,319.288 L964.125,362.54 L964.204,362.6 L963.904,363 L964.029,362.516 L963.904,363 L964.204,362.6 L964.729,362.993 L966.235,364.12 M857,335.87 L771.255,313.696 L771.206,313.5 L771.262,313.5 L770.75,312.003 L791.497,287.446 C791.614,287.8 791.764,288.142 791.944,288.466 L771.506,312.657 L771.458,312.715 L858.676,335.27 L857,335.87 M904.228,318.973 L819.64,255.683 L799.047,280.058 C798.727,279.946 798.393,279.859 798.047,279.802 C798.02,279.797 797.992,279.793 797.965,279.789 L819.485,254.317 L905.357,318.569 L904.228,318.973" id="Fill-17" fill="#A7C7C7"></path>
        <path d="M844.075,600.342 L815.756,550.566 L817.571,551.733 L841.282,593.409 L841.281,593.407 L833.257,561.822 L834.491,562.615 L843.146,596.684 L843.162,596.751 L842.678,596.874 L843.112,596.627 L842.678,596.874 L843.162,596.751 L844.073,600.337 L844.075,600.342 M834.13,561.194 L832.896,560.4 L832.104,557.28 L833.416,558.384 L834.13,561.194 M832.994,556.722 L831.681,555.618 L818.199,502.545 L819.498,503.597 L832.994,556.722 M816.504,549.858 L814.689,548.691 L808.071,537.058 L810.279,538.916 L815.757,548.546 L816.504,549.858 M808.852,536.409 L806.644,534.551 L787.074,500.153 L784.835,475.518 L785.919,476.396 L788.051,499.847 L788.211,500.129 L808.852,536.409 M819.086,501.977 L817.787,500.925 L814.924,489.655 C815.127,489.702 815.333,489.744 815.542,489.778 C815.696,489.804 815.85,489.825 816.004,489.843 L819.086,501.977 M785.793,475.007 L784.708,474.129 L783.613,462.08 L784.677,462.736 L785.793,475.007 M810.905,473.835 L771.632,319.24 L784.564,461.492 L783.5,460.836 L770.106,313.5 L771.206,313.5 L771.255,313.696 L811.764,473.154 C811.465,473.364 811.178,473.591 810.905,473.835" id="Fill-18" fill="#A7C7C7"></path>
        <path d="M867.441,974.154 L775.08,898.546 L775.98,897.991 L867.016,972.513 L884.582,928.185 L885.073,929.66 L867.441,974.154 M885.646,928.215 L885.155,926.739 L944.212,777.708 L943.394,778.001 L895.195,795.245 L893.962,795.686 L847.115,812.447 L846.799,811.498 L892.828,795.03 L894.061,794.589 L920.155,785.253 L944.522,777.567 L944.296,780.21 L885.646,928.215 M774.261,897.876 L747.672,876.11 L748.921,875.84 L775.162,897.321 L774.261,897.876 M746.683,875.3 L722.895,855.827 L845.858,811.834 L846.174,812.784 L760.136,843.565 C758.949,843.587 757.832,844.005 756.937,844.71 L724.896,856.173 L747.932,875.031 L746.683,875.3 M945.786,776.451 L945.641,776.135 L945.956,776.022 L945.786,776.451" id="Fill-19" fill="#A7C7C7"></path>
        <polyline id="Fill-20" fill="#A7C7C7" points="926.541 1000 925.537 1000 931.893 925.53 931.893 925.529 944.522 777.567 892.826 793.873 891.535 794.281 845.864 808.687 909.538 1000 908.484 1000 844.595 808.039 890.362 793.602 891.654 793.195 943.605 776.807 944.692 776.465 945.475 778.166 926.541 1000"></polyline>
        <path d="M1335.27,778.542 L1332,777.374 L1329.79,776.586 L1239.19,744.258 L1239.65,743.359 L1328.86,775.191 L1251.54,719.958 L1251.99,719.056 L1333.44,777.233 L1335.27,778.542 M1238.24,743.919 L1172.37,720.414 L1172.15,720.338 L1172.32,719.867 L1172.72,719.567 L1172.32,719.867 L1172.15,720.338 L1172.01,720.288 L1171.58,719.708 L1133.83,669.372 L1134.94,669.193 L1172.63,719.447 L1238.7,743.02 L1238.24,743.919 M1250.71,719.37 L1172.15,663.253 L1173.55,663.029 L1251.17,718.469 L1250.71,719.37 M1133.15,668.467 L1080.26,597.95 L1080.26,597.949 L1080.08,597.707 L1079.19,596.519 L1077.74,594.591 L1079.81,596.069 L1079.97,596.184 L1080.2,596.346 L1080.78,596.765 L1172.39,662.201 L1170.99,662.425 L1082.42,599.159 L1134.26,668.289 L1133.15,668.467" id="Fill-21" fill="#A7C7C7"></path>
        <path d="M1104.23,734.249 L1103.27,733.473 L1050.62,690.82 L1049.79,690.144 L1042.2,684 L1043.53,683.788 L1050.11,689.122 L1050.95,689.797 L1103.56,732.419 L1114.99,672.379 L1116.04,672.211 L1104.44,733.134 L1104.23,734.249 M1041.16,683.154 L1025.5,670.474 L1024.72,669.844 L976.574,630.839 L977.001,629.898 L1025.33,669.043 L1026.1,669.673 L1042.48,682.942 L1041.16,683.154 M1115.19,671.334 L1116.01,667.029 L1067.72,637.253 L1066.84,636.712 L1055.89,629.96 L1055.03,629.433 L1019.81,607.715 L1018.52,606.921 L994.23,591.943 L994.647,591.025 L1020.01,606.665 L1021.3,607.459 L1055.64,628.63 L1056.49,629.157 L1067.15,635.73 L1068.03,636.271 L1117.12,666.539 L1116.24,671.167 L1115.19,671.334 M975.771,630.188 L801.996,489.42 L801.198,488.773 L719.248,422.389 L719.562,422 L719.248,422.389 L719.825,421.574 L808.861,476.473 C808.707,476.77 808.57,477.077 808.448,477.393 L725.924,426.51 L784.708,474.129 L785.793,475.007 L802.009,488.143 L802.807,488.79 L919.981,583.708 C921.107,586.176 923.346,588.029 926.054,588.628 L960.846,616.811 L961.88,617.648 L976.198,629.247 L975.771,630.188 M993.372,591.414 L823.855,486.893 C824.081,486.645 824.294,486.384 824.493,486.111 L993.789,590.496 L993.372,591.414" id="Fill-22" fill="#A7C7C7"></path>
        <path d="M1170,837.53 L1168.62,837.396 L1167.35,837.272 L1059.3,826.772 L1058.24,826.669 L1018.17,822.775 L1017.07,822.669 L1004.14,821.412 L1003,821.301 L999.609,820.972 L999.144,819.922 L1003.65,820.359 L1004.79,820.47 L1016.71,821.628 L1017.8,821.735 L1058.7,825.709 L1059.76,825.812 L1166.87,836.22 L1086.91,769.637 L1086.12,768.977 L1085.55,768.508 L1084.73,767.821 L1038.37,729.212 L1037.54,728.522 L993.426,691.788 L994.737,691.578 L1003.16,698.594 L1037.87,727.494 L1038.69,728.184 L1085.67,767.302 L1086.49,767.988 L1086.57,768.049 L1087.36,768.709 L1121.48,797.124 L1168.4,836.194 L1168.75,836.49 L1168.43,836.875 L1168.48,836.377 L1168.43,836.875 L1168.75,836.49 L1169.17,836.836 L1170,837.53 M998.466,820.861 L963.571,817.47 L878.177,632.001 L877.745,631.06 L851.17,573.342 L851.292,573.42 L851.884,572.617 L914.497,624.758 L915.507,625.6 L960.751,663.276 L960.322,664.221 L914.211,625.822 L913.201,624.98 L852.941,574.799 L878.765,630.885 L879.197,631.826 L945.399,775.611 L945.641,776.135 L945.786,776.451 L945.875,776.644 L945.876,776.646 L945.902,776.702 L964.239,816.53 L998.002,819.811 L998.466,820.861 M992.405,690.938 L961.119,664.885 L961.548,663.94 L993.717,690.729 L992.405,690.938" id="Fill-23" fill="#A7C7C7"></path>
        <path d="M1151.82,1000 L1149.92,1000 L1195.64,971.821 L1195.64,972.995 L1151.82,1000 M1062.71,1000 L1061.33,1000 L1036.24,973.608 L1035.55,972.883 L1004.48,940.21 L1003.75,939.435 L992.587,927.699 L1011.38,923.641 L1012.62,923.373 L1041.11,917.221 L1041.52,918.155 L1012.07,924.516 L1010.83,924.784 L994.539,928.301 L1004.21,938.473 L1004.95,939.248 L1036.25,972.165 L1036.94,972.89 L1062.71,1000 M1196.64,972.379 L1196.64,971.205 L1297.95,908.773 L1298.68,909.494 L1196.64,972.379 M1042.52,917.939 L1042.11,917.005 L1049.6,915.387 L1050.59,915.174 L1102.54,903.956 L1104.3,903.575 L1163.64,890.762 L1163.06,891.911 L1103.04,904.87 L1101.28,905.251 L1050.92,916.126 L1049.94,916.338 L1042.52,917.939 M1299.56,908.953 L1298.82,908.232 L1412.82,837.979 L1260.64,870.839 L1259.79,870.001 L1418.31,835.771 L1299.56,908.953 M1164.32,891.639 L1164.9,890.49 L1195.64,883.852 L1195.64,884.875 L1164.32,891.639 M1196.64,884.659 L1196.64,883.636 L1258.62,870.254 L1259.47,871.092 L1196.64,884.659" id="Fill-24" fill="#A7C7C7"></path>
        <path d="M1392.52,1000 L1391.09,1000 L1298.68,909.494 L1297.95,908.773 L1259.47,871.092 L1258.62,870.254 L1202.9,815.686 L1203.38,814.752 L1259.79,870.001 L1260.64,870.839 L1298.82,908.232 L1299.56,908.953 L1392.52,1000 M1196.64,1000 L1195.64,1000 L1195.64,829.981 L1196.64,828.013 L1196.64,1000 M1195.64,827.773 L1195.64,807.174 L1196.47,807.988 L1196.85,808.355 L1202.63,814.018 L1202.15,814.953 L1196.64,809.553 L1196.64,825.805 L1195.64,827.773" id="Fill-25" fill="#A7C7C7"></path>
        <polyline id="Fill-26" fill="#A7C7C7" points="1109.27 1000 1108.15 1000 1163.06 891.911 1163.64 890.762 1202.15 814.953 1202.63 814.018 1215.41 788.87 1215.94 787.811 1238.24 743.919 1238.7 743.02 1250.71 719.37 1251.17 718.469 1288.67 644.648 1173.55 663.029 1172.15 663.253 1134.94 669.193 1133.83 669.372 1116.04 672.211 1114.99 672.379 1053.36 682.218 1052.26 682.395 1043.53 683.788 1042.2 684 1011.71 688.869 1010.29 689.096 994.737 691.578 993.426 691.788 945.804 699.391 989.508 798.148 989.509 798.148 999.144 819.922 999.609 820.972 1001.02 824.153 1001.49 825.224 1028.95 887.275 1029.48 888.475 1042.11 917.005 1042.52 917.939 1057.05 950.763 1057.48 951.749 1078.84 1000 1077.74 1000 1056.73 952.522 1056.3 951.536 1041.52 918.155 1041.11 917.221 1028.91 889.656 1028.38 888.456 1000.82 826.186 1000.35 825.115 998.466 820.861 998.002 819.811 966.643 748.952 966.18 747.904 944.364 698.608 944.74 698.548 944.629 698.793 945.539 699.207 945.539 699.206 945.924 698.359 992.405 690.938 993.717 690.729 1011.15 687.945 1012.57 687.719 1041.16 683.154 1042.48 682.942 1052.6 681.327 1053.71 681.151 1115.19 671.334 1116.24 671.167 1133.15 668.467 1134.26 668.289 1170.99 662.425 1172.39 662.201 1287.39 643.84 1289.41 644.477 1289.71 643.523 1289.6 643.488 1290.45 643.351 1251.99 719.056 1251.54 719.958 1239.65 743.359 1239.19 744.258 1217.12 787.695 1216.59 788.753 1203.38 814.752 1202.9 815.686 1164.9 890.49 1164.32 891.639 1109.27 1000"></polyline>
        <polyline id="Fill-27" fill="#A7C7C7" points="945.539 699.207 944.629 698.793 944.74 698.548 1009.72 555.39 1289.6 643.488 1289.71 643.523 1289.41 644.477 1287.39 643.84 1010.27 556.61 945.924 698.359 945.539 699.206 945.539 699.207"></polyline>
        <path d="M606.899,500.622 L435.605,449.535 L435.78,449.45 L436.938,448.889 L606.226,499.378 L627.098,429.234 L627.974,429.797 L607.042,500.143 L606.899,500.622 M606.563,500 L606.563,500 L606.705,499.521 L606.563,500 M435.178,449.407 L434.396,449.174 L434.957,448.801 L435.178,449.407 M435.842,448.308 L435.814,448.233 L544.481,376.1 L545.399,376.691 L442.023,445.312 L435.842,448.308 M628.271,428.799 L627.395,428.236 L629.208,422.142 L629.498,421.17 L637.676,393.684 L638.511,394.386 L628.271,428.799 M638.822,393.341 L637.987,392.639 L661.536,313.5 L662.579,313.5 L638.822,393.341 M546.309,376.087 L545.391,375.496 L562.544,364.11 L564.877,363.762 L546.309,376.087 M564.51,362.806 L584.896,349.273 L585.693,349.944 L566.842,362.457 L564.51,362.806 M586.561,349.368 L585.764,348.697 L606.799,334.734 L607.675,335.352 L586.561,349.368 M608.57,334.759 L607.693,334.141 L609.178,333.155 L609.975,333.826 L608.57,334.759 M610.844,333.249 L610.046,332.579 L625.288,322.461 L625.549,323.488 L610.844,333.249 M626.432,322.902 L626.171,321.875 L638.788,313.5 L640.596,313.5 L626.432,322.902 M662.877,312.5 L661.833,312.5 L666.418,297.091 L666.69,296.179 L664.806,297.43 L642.102,312.5 L640.294,312.5 L667.229,294.621 L668.435,293.821 L662.877,312.5" id="Fill-28" fill="#A7C7C7"></path>
        <path d="M435.282,449.691 L435.178,449.407 L412.098,386.188 L412.253,386.552 L413.242,386.404 L435.814,448.233 L435.842,448.308 L442.023,445.312 L561.799,387.238 L562.785,387.872 L436.938,448.889 L435.78,449.45 L435.605,449.535 L435.282,449.691 M435.562,449 L435.562,449 L436.032,448.828 L435.562,449 M563.839,387.361 L562.854,386.727 L605.078,366.255 L605.916,366.96 L604.03,367.875 L563.839,387.361 M448.856,381.086 L532.754,368.558 L448.856,381.086 M505.625,371.598 L532.436,367.595 L505.625,371.598 M534.255,368.334 L534.254,368.334 L596.502,359.039 L596.502,359.04 L564.877,363.762 L562.544,364.11 L534.255,368.334 M533.479,367.439 L533.479,367.439 L564.51,362.806 L566.842,362.457 L595.482,358.181 L533.479,367.439 M606.901,366.483 L606.063,365.778 L607.949,364.863 L630.4,353.978 L615.409,356.216 L613.893,356.443 L597.821,358.843 L597.821,358.842 L633.413,353.528 L633.489,353.592 L606.901,366.483 M596.801,357.984 L596.8,357.984 L614.894,355.282 L616.41,355.056 L632.255,352.69 L596.801,357.984 M634.544,353.08 L634.001,352.697 L633.936,352.439 L636.726,352.022 L634.544,353.08" id="Fill-29" fill="#A7C7C7"></path>
        <path d="M851.292,573.42 L851.17,573.342 L834.491,562.615 L833.257,561.822 L817.571,551.733 L772.471,522.728 L627.974,429.797 L627.098,429.234 L580.976,399.571 L579.618,398.698 L578.532,397.999 L578.215,397.796 L545.399,376.691 L544.481,376.1 L532.754,368.558 L534.254,368.334 L534.255,368.334 L545.391,375.496 L546.309,376.087 L562.854,386.727 L563.839,387.361 L578.621,396.868 L578.875,397.031 L579.63,397.517 L580.133,397.841 L580.451,398.045 L627.395,428.236 L628.271,428.799 L772.198,521.364 L772.199,521.364 L773.04,521.905 L832.896,560.4 L834.13,561.194 L845.269,568.358 L638.511,394.386 L637.676,393.684 L620.742,379.436 L619.89,378.718 L606.045,367.069 L605.916,366.96 L596.502,359.04 L596.502,359.039 L597.821,358.842 L597.821,358.842 L605.933,365.668 L606.063,365.778 L620.909,378.27 L620.91,378.27 L637.987,392.639 L638.822,393.341 L831.681,555.618 L832.994,556.722 L851.885,572.617 L851.885,572.617 L851.292,573.42 M532.436,367.595 L532.436,367.595 L541.967,313.5 L543.933,313.5 L559.785,326.838 C559.732,327.274 559.726,327.705 559.763,328.127 L542.904,313.941 L533.479,367.439 L532.436,367.595 M595.482,358.181 L595.482,358.181 L585.693,349.944 L584.896,349.273 L566.464,333.765 C566.899,333.729 567.323,333.648 567.732,333.525 L585.764,348.697 L586.561,349.368 L596.8,357.984 L596.801,357.984 L595.482,358.181 M542.082,312.846 L542.22,312.059 L542.388,312.2 L542.082,312.846" id="Fill-30" fill="#A7C7C7"></path>
        <path d="M771.262,313.5 L624.043,313.5 L623.789,312.5 L769.863,312.5 L769.815,312.362 L713.093,146.649 L714.011,146.244 L771.262,313.5 M623.012,313.5 L587.35,313.5 L586.161,312.5 L622.758,312.5 L623.012,313.5 M585.796,313.5 L578.43,313.5 L577.013,312.5 L584.607,312.5 L585.796,313.5 M576.694,313.5 L541.771,313.5 L542.082,312.846 L542.388,312.2 L550.534,295.048 L551.364,295.633 L543.353,312.5 L575.277,312.5 L576.694,313.5 M551.799,294.716 L551.348,294.397 C551.526,294.446 551.706,294.489 551.889,294.528 L551.799,294.716 M560.094,277.249 C559.831,277.037 559.556,276.838 559.271,276.653 L594.699,202.053 L595.085,203.572 L560.094,277.249 M595.757,202.157 L595.371,200.638 L596.566,198.121 L597.967,197.503 L595.757,202.157 M597.223,196.738 L636.957,113.072 L638.069,113.06 L598.624,196.119 L597.223,196.738 M712.768,145.7 L701.377,112.421 L702.43,112.41 L713.686,145.294 L712.768,145.7 M637.434,112.067 L673.252,36.648 L675.255,34.524 L675.654,34.568 L675.593,34.166 L675.633,34.124 L702.089,111.414 L701.036,111.424 L674.987,35.324 L638.547,112.056 L637.434,112.067" id="Fill-31" fill="#A7C7C7"></path>
        <g id="Group-35" transform="translate(466.000000, 0.000000)">
            <mask id="mask-2" fill="white">
                <use xlink:href="#path-1"></use>
            </mask>
            <g id="Clip-33"></g>
            <path d="M0.024,256.299 L0.055,255.23 L0.482,255.582 L0.857,255.416 L0.024,256.299 M0.641,254.418 L0.092,253.966 L0.613,235.853 L1.594,236.545 L1.1,253.701 L11.016,243.191 L11.841,243.773 L2.625,253.542 L0.641,254.418 M12.535,243.038 L11.709,242.456 L22.136,231.404 L22.903,232.049 L12.535,243.038 M1.629,235.346 L0.648,234.654 L1.247,213.845 L2.224,214.666 L1.629,235.346 M23.59,231.32 L22.823,230.676 L111.966,136.189 L112.258,137.337 L23.59,231.32 M2.261,213.39 L1.284,212.569 L4.102,114.757 L5.103,114.747 L2.261,213.39 M113.07,136.476 L112.779,135.327 L133.418,113.451 L134.806,113.437 L113.07,136.476 M4.131,113.757 L4.587,97.931 L5.585,98.016 L5.132,113.747 L4.131,113.757 M134.37,112.441 L208.009,34.388 L209.255,34.524 L135.758,112.427 L134.37,112.441 M5.614,97.015 L4.616,96.929 L7.049,12.447 L7.508,12.497 L7.562,12 L7.709,12.478 L7.562,12 L7.508,12.497 L8.047,12.556 L5.614,97.015 M209.593,34.166 L209.499,33.545 L210.116,33.612 L209.593,34.166 M7.073,11.627 L7.078,11.444 L7.514,11.492 L7.073,11.627" id="Fill-32" fill="#A7C7C7" mask="url(#mask-2)"></path>
            <polyline id="Fill-34" fill="#A7C7C7" mask="url(#mask-2)" points="209.654 34.568 209.255 34.524 208.009 34.388 8.047 12.556 7.508 12.497 7.562 12 7.709 12.478 7.562 12 7.508 12.497 7.049 12.447 5.093 12.233 7.073 11.627 7.514 11.492 45.045 0 48.46 0 10.032 11.766 208.471 33.432 203.422 0 204.434 0 209.593 34.166 209.654 34.568"></polyline>
        </g>
        <path d="M466.482,255.582 L466.055,255.23 L298.823,117.685 L298.712,117.423 L308.314,124.196 L466.092,253.966 L466.641,254.418 L468.625,253.542 L482.808,247.277 L483.762,247.949 L466.857,255.416 L466.482,255.582 M484.829,247.478 L483.876,246.805 L498.679,240.267 L499.531,240.983 L484.829,247.478 M500.55,240.533 L499.697,239.817 L593.739,198.277 L593.989,199.26 L500.55,240.533 M594.917,198.85 L594.667,197.867 L597.223,196.738 L598.624,196.119 L654.246,171.55 C654.527,171.796 654.816,172.033 655.112,172.261 L597.967,197.503 L596.566,198.121 L594.917,198.85 M683.486,159.727 C683.517,159.358 683.536,158.984 683.544,158.609 L712.768,145.7 L713.686,145.294 L789.799,111.674 L790.125,112.623 L714.011,146.244 L713.093,146.649 L683.486,159.727 M299.116,116.484 L297.718,115.498 L349.631,114.974 L350.807,115.962 L299.116,116.484 M297.15,116.308 L296.184,115.514 L296.809,115.507 L297.102,116.196 L297.15,116.308 M352.343,115.947 L351.167,114.958 L470.131,113.757 L471.132,113.747 L572.006,112.728 L572.259,113.725 L471.103,114.747 L470.102,114.757 L352.343,115.947 M573.288,113.715 L573.035,112.717 L600.37,112.441 L601.758,112.427 L637.434,112.067 L638.547,112.056 L701.036,111.424 L702.089,111.414 L789.406,110.532 L789.748,111.528 L702.43,112.41 L701.377,112.421 L638.069,113.06 L636.957,113.072 L600.806,113.437 L599.418,113.451 L573.288,113.715 M791.043,112.218 L790.459,110.521 L792.557,110.5 L794.987,110.475 L791.043,112.218" id="Fill-36" fill="#A7C7C7"></path>
        <path d="M634.43,354.382 L633.489,353.592 L633.413,353.528 L634.183,353.413 L634.43,354.382 M634.001,352.697 L624.205,345.788 L623.556,345.242 L609.975,333.826 L609.178,333.155 L585.796,313.5 L584.607,312.5 L560.494,292.23 C560.743,292.007 560.981,291.771 561.207,291.523 L586.161,312.5 L587.35,313.5 L610.046,332.579 L610.844,333.249 L624.21,344.484 L624.975,345.128 L632.695,351.618 L629.666,339.691 L629.365,338.509 L589.817,182.837 C590.086,182.493 590.34,182.136 590.577,181.768 L633.936,352.439 L634.001,352.697 M545.588,279.7 L350.807,115.962 L349.631,114.974 L312.032,83.367 L470.616,96.929 L471.614,97.015 L571.209,105.532 L573.035,112.717 L573.288,113.715 L578.779,135.327 L579.07,136.476 L585.369,161.269 C584.986,161.058 584.593,160.865 584.191,160.69 L570.416,106.468 L471.585,98.016 L470.587,97.931 L315.092,84.633 L351.167,114.958 L352.343,115.947 L488.823,230.676 L489.59,231.32 L499.697,239.817 L500.55,240.533 L546.164,278.877 C545.959,279.14 545.766,279.415 545.588,279.7" id="Fill-37" fill="#A7C7C7"></path>
        <path d="M412.253,386.552 L396.645,349.906 C397.109,350.335 397.631,350.706 398.2,351.005 L412.87,385.448 L505.625,371.598 L532.436,367.595 L533.479,367.439 L595.482,358.181 L596.801,357.984 L632.255,352.69 L576.694,313.5 L575.277,312.5 L551.364,295.633 L550.534,295.048 L483.762,247.949 L482.808,247.277 L298.712,117.423 L298.823,117.685 L394.57,342.483 C394.492,342.755 394.429,343.034 394.382,343.319 C394.324,343.67 394.292,344.018 394.284,344.363 L297.15,116.308 L297.102,116.196 L296.809,115.507 L296.413,114.578 L297.718,115.498 L477.709,242.456 L478.535,243.038 L483.876,246.805 L484.829,247.478 L545.861,290.527 C547.145,292.371 549.057,293.777 551.348,294.397 L551.799,294.716 L577.013,312.5 L578.43,313.5 L607.693,334.141 L608.57,334.759 L634.544,353.08 L634.87,353.31 L634.183,353.413 L633.413,353.528 L597.821,358.842 L596.502,359.039 L534.254,368.334 L532.754,368.558 L413.242,386.404 L412.253,386.552 M297.562,116 L297.274,116.409 L297.562,116" id="Fill-38" fill="#A7C7C7"></path>
        <path d="M1140.72,290.431 L1141.98,289.735 L1142.33,289.899 L1142.05,290.3 L1140.72,290.431 M1143.76,290.131 L1143.69,289.929 L1216.05,249.841 L1145.44,288.961 L1200.57,283.526 L1200.06,284.581 L1143.76,290.131 M1201.22,284.466 L1201.73,283.411 L1250.58,278.595 L1251.66,279.493 L1201.22,284.466 M1253.06,279.355 L1251.98,278.457 L1305.54,273.177 L1306.64,274.073 L1253.06,279.355 M1308.05,273.934 L1306.95,273.037 L1346.44,269.144 L1345.91,270.202 L1308.05,273.934 M1347.09,270.085 L1347.62,269.027 L1460.3,257.919 L1462.5,258.706 L1347.09,270.085 M1463.94,258.565 L1462.8,257.751 L1464.84,258.476 L1463.94,258.565 M1216.99,249.321 L1216.99,249.321 L1217.13,249.244 L1216.99,249.321 M1218.65,248.404 L1218.65,248.404 L1252.22,229.807 L1218.65,248.404 M1253.16,229.285 L1253.16,229.285 L1302.87,201.748 L1253.16,229.285 M1269.04,219.346 L1302.08,201.042 L1269.04,219.346" id="Fill-39" fill="#BFD6D5"></path>
        <path d="M1143.69,289.929 L1143.64,289.772 L1143.83,289.494 L1143.69,289.43 L1143.94,288.648 L1215.23,249.155 L1216.05,249.841 L1143.69,289.929 M1142.78,289.003 L1142.78,289.003 L1168.04,209.854 L1168.04,209.855 L1142.78,289.003 M1216.99,249.321 L1216.17,248.635 L1217.89,247.683 L1217.13,249.244 L1216.99,249.321 M1218.65,248.404 L1219.4,246.843 L1251.38,229.127 L1252.22,229.807 L1218.65,248.404 M1253.16,229.285 L1252.32,228.605 L1269.04,219.346 L1302.08,201.042 L1302.51,201.622 L1302.66,201.672 L1302.82,201.201 L1303.22,200.901 L1302.82,201.201 L1302.66,201.672 L1302.87,201.748 L1253.16,229.285 M1168.36,208.826 L1168.36,208.826 L1180.28,171.477 L1168.36,208.826 M1303.13,200.781 L1303.13,200.781 L1265.44,150.526 L1303.13,200.781 M1300.54,198.989 L1264.33,150.705 L1300.54,198.989 M1180.61,170.454 L1180.61,170.454 L1182.76,163.728 L1180.61,170.454 M1183.1,162.66 L1196.59,120.392 L1183.1,162.66 M1263.65,149.8 L1210.76,79.282 L1199.02,116.05 L1210.76,79.282 L1263.65,149.8 M1264.76,149.622 L1212.92,80.492 L1264.76,149.622 M1210.47,77.517 L1210.31,77.402 L1210.4,77.132 L1210.58,77.374 L1210.47,77.517" id="Fill-40" fill="#BFD6D5"></path>
        <path d="M1069.27,555.232 L1113.4,463.906 L1114.3,464.348 L1072.86,550.105 L1142.63,478.311 L1143.57,478.775 L1069.27,555.232 M1144.31,478.022 L1143.36,477.557 L1166.05,454.216 L1166.74,454.941 L1144.31,478.022 M1114.73,463.447 L1113.83,463.005 L1134.25,420.768 L1134.98,421.542 L1114.73,463.447 M1167.44,454.223 L1166.75,453.498 L1179.91,439.956 C1180.17,440.169 1180.43,440.373 1180.71,440.57 L1167.44,454.223 M1135.45,420.58 L1134.71,419.806 L1141.33,406.117 L1142.57,405.849 L1135.45,420.58 M1203.53,417.086 C1203.33,416.819 1203.11,416.56 1202.89,416.307 L1231.78,386.584 L1233.54,386.203 L1203.53,417.086 M1141.88,404.974 L1158.88,369.79 L1159.41,370.99 L1143.12,404.706 L1141.88,404.974 M1233.04,385.289 L1297.85,318.604 L1299.12,318.728 L1234.8,384.908 L1233.04,385.289 M1159.98,369.808 L1159.45,368.608 L1165.7,355.676 L1166.17,357.007 L1159.98,369.808 M1166.78,355.737 L1166.31,354.406 L1188.74,308.002 L1189.8,308.105 L1166.78,355.737 M1298.93,318.207 L1298.93,318.207 L1298.98,317.709 L1298.93,318.207 L1299.25,317.823 L1298.9,317.527 L1325.9,289.739 L1306.64,274.073 L1305.54,273.177 L1252.22,229.807 L1251.38,229.127 L1234.57,215.453 L1219.4,246.843 L1218.65,248.404 L1217.86,250.041 L1217.07,249.382 L1217.13,249.244 L1217.89,247.683 L1233.77,214.806 L1234.73,215.582 L1234.94,214.468 L1252.32,228.605 L1253.16,229.285 L1306.95,273.037 L1308.05,273.934 L1326.14,288.645 L1326.14,290.928 L1299.67,318.168 L1299.25,317.823 L1298.93,318.207 M1190.26,307.145 L1189.2,307.042 L1216.62,250.31 L1217.41,250.969 L1190.26,307.145 M1327.35,289.687 L1326.98,289.325 L1327.38,289.653 L1327.35,289.687" id="Fill-41" fill="#BFD6D5"></path>
        <path d="M1142.33,289.899 L1141.98,289.735 L1120.01,279.481 L1142.33,289.899 M1143.69,289.43 L1143.48,289.332 L1143.23,288.607 L1142.91,289.065 L1142.78,289.003 L1168.04,209.855 L1168.87,210.545 L1143.94,288.648 L1143.69,289.43 M1118.63,278.838 L1084.21,262.777 L1118.63,278.838 M1076.37,257.978 L1076.37,257.977 L1097.14,230.285 L1097.14,230.286 L1076.37,257.978 M1097.83,229.369 L1097.83,229.368 L1133.83,181.369 L1097.83,229.369 M1169.19,209.517 L1168.36,208.826 L1180.28,171.477 L1181.12,172.153 L1169.19,209.517 M1134.43,180.568 L1134.43,180.568 L1142.21,170.202 L1134.43,180.568 M1181.45,171.13 L1180.61,170.454 L1182.76,163.728 L1183.86,163.551 L1181.45,171.13 M1143.07,169.052 L1156,151.807 L1143.07,169.052 M1183.1,162.66 L1197.34,118.045 L1198.21,118.586 L1184.2,162.484 L1183.1,162.66 M1156.6,151.006 L1156.6,151.006 L1186.39,111.293 L1156.6,151.006 M1198.53,117.604 L1197.65,117.064 L1209.2,80.876 L1186.99,110.49 L1210.58,79.04 L1210.76,79.282 L1199.02,116.05 L1198.53,117.604 M1186.13,109.963 L1186.13,109.963 L1209.42,78.912 L1186.13,109.963 M1210.7,77.679 L1210.47,77.517 L1210.58,77.374 L1211.95,75.538 L1211.3,77.575 L1210.7,77.679" id="Fill-42" fill="#BFD6D5"></path>
        <path d="M1044.85,432.148 L1045.17,430.284 L1045.89,430.64 L1044.85,432.148 M1046.47,429.809 L1046.47,429.809 L1062.39,406.862 L1062.39,406.863 L1046.47,429.809 M1045.26,429.806 L1074.26,262.895 L1074.8,261.541 L1074.11,269.615 L1046.61,427.855 L1045.26,429.806 M1063.54,405.213 L1063.54,405.213 L1131.32,307.519 L1063.54,405.213 M1131.99,306.556 L1131.99,306.556 L1134.63,302.744 L1131.99,306.556 M1135.29,301.803 L1135.29,301.803 L1142.93,290.786 L1135.29,301.803 M1142.33,289.899 L1120.01,279.481 L1119.39,278.091 L1142.78,289.003 L1142.91,289.065 L1142.67,289.411 L1142.33,289.899 M1143.64,289.772 L1143.48,289.332 L1143.69,289.43 L1143.83,289.494 L1143.64,289.772 M1118.63,278.838 L1077.04,259.431 L1076.4,258.036 L1076.41,258.03 L1118.01,277.447 L1118.63,278.838" id="Fill-43" fill="#BFD6D5"></path>
        <path d="M1223.83,518.324 L1143.57,478.775 L1142.63,478.311 L1114.3,464.348 L1113.4,463.906 L1060.74,437.956 L1060.83,436.887 L1113.83,463.005 L1114.73,463.447 L1143.36,477.557 L1144.31,478.022 L1222.07,516.344 L1220.29,511.26 L1221.97,513.026 L1223.22,516.583 L1222.69,516.908 L1223.21,517.76 L1223.56,517.549 L1223.83,518.324 M1221.16,510.726 L1219.48,508.96 L1215.71,498.21 L1220.82,509.765 L1221.16,510.726 M1216.64,497.831 L1211.52,486.275 L1196.22,442.659 C1196.53,442.542 1196.84,442.415 1197.15,442.279 L1216.64,497.831 M1059.78,437.482 L1045.89,430.64 L1045.17,430.284 L1044.99,430.193 L1045.26,429.806 L1046.61,427.855 L1062.56,404.862 L1062.39,406.862 L1046.47,429.809 L1059.87,436.412 L1059.78,437.482 M1185.26,411.431 L1180.44,397.671 L1181.42,397.459 L1186.22,411.149 C1185.9,411.233 1185.58,411.328 1185.26,411.431 M1063.54,405.213 L1063.71,403.212 L1130.85,306.448 L1131.32,307.519 L1063.54,405.213 M1180.1,396.72 L1166.17,357.007 L1165.7,355.676 L1147.57,304.001 L1148.67,304.108 L1166.31,354.406 L1166.78,355.737 L1181.09,396.508 L1180.1,396.72 M1131.99,306.556 L1131.52,305.486 L1133.49,302.634 L1134.63,302.744 L1131.99,306.556 M1148.3,303.068 L1147.2,302.961 L1142.93,290.786 L1135.29,301.803 L1134.15,301.692 L1142.05,290.3 L1142.33,289.899 L1142.67,289.411 L1142.91,289.065 L1143.23,288.607 L1143.48,289.332 L1143.64,289.772 L1143.69,289.929 L1143.76,290.131 L1148.3,303.068 M1143.08,289.696 L1142.61,289.862 L1143.08,289.696" id="Fill-44" fill="#BFD6D5"></path>
        <path d="M1076.37,257.977 L1076.29,257.785 L1076.46,257.355 L1076.14,257.468 L1075.9,256.945 L1096.68,229.237 L1097.14,230.285 L1076.37,257.977 M1074.44,257.197 L1073.77,256.926 L1074.44,257.197 M1097.83,229.368 L1097.37,228.32 L1133.06,180.728 L1133.83,181.369 L1097.83,229.368 M1134.43,180.568 L1133.66,179.927 L1140.79,170.429 L1142.21,170.202 L1134.43,180.568 M1141.65,169.279 L1155.22,151.177 L1156,151.807 L1143.07,169.052 L1141.65,169.279 M1156.6,151.006 L1155.83,150.376 L1185.53,110.766 L1186.39,111.293 L1156.6,151.006 M802.097,148.347 L801.044,147.922 L802.199,147.724 L802.308,148.041 L802.097,148.347 M804.683,148.312 L803.999,148.036 L805.52,147.155 L993.493,114.923 L994.019,115.847 L804.683,148.312 M995.067,115.667 L994.541,114.743 L1008.24,112.393 L1008.68,113.334 L995.067,115.667 M1009.7,113.159 L1009.26,112.218 L1043.7,106.314 L1044.71,107.155 L1009.7,113.159 M1186.99,110.49 L1186.13,109.963 L1209.42,78.912 L1151.8,88.793 L1150.51,87.999 L1209.69,77.852 L1210.58,79.04 L1186.99,110.49 M1046.01,106.933 L1045,106.091 L1090.03,98.369 L1091.07,99.206 L1046.01,106.933 M1092.38,98.981 L1091.35,98.144 L1094.68,97.573 C1095.46,97.755 1096.27,97.851 1097.1,97.851 C1097.1,97.851 1097.11,97.851 1097.12,97.851 C1099.22,97.847 1101.17,97.234 1102.81,96.178 L1114.12,94.24 L1113.62,95.34 L1092.38,98.981 M1114.81,95.136 L1115.31,94.035 L1149.02,88.254 L1150.31,89.048 L1114.81,95.136 M1211.28,78.098 L1210.7,77.679 L1211.3,77.575 L1211.73,77.501 L1211.28,78.098" id="Fill-45" fill="#BFD6D5"></path>
        <path d="M1047.45,290.333 L1024.46,277.02 L1025.7,276.578 L1047.25,289.06 L1073.89,259.334 L1074.71,259.041 L1074.09,260.617 L1047.45,290.333 M1023.33,276.363 L1022.03,275.614 L1023.33,275.207 L1024.56,275.922 L1023.33,276.363 M1020.86,274.935 L803.012,148.781 L803.047,148.731 L809.231,151.227 L1022.15,274.528 L1020.86,274.935" id="Fill-46" fill="#BFD6D5"></path>
        <g id="Group-55" transform="translate(751.000000, 0.000000)">
            <mask id="mask-4" fill="white">
                <use xlink:href="#path-3"></use>
            </mask>
            <g id="Clip-48"></g>
            <path d="M323.1,258.141 L52.047,148.731 L52.211,148.493 L52.999,148.036 L53.683,148.312 L322.77,256.926 L323.44,257.197 L223.573,81.669 L222.662,78.084 L222.178,78.207 L222.612,77.96 L222.178,78.207 L222.662,78.084 L222.645,78.015 L321.05,250.973 L324.19,257.798 L323.1,258.141 M51.464,148.495 L51.097,148.347 L51.308,148.041 L51.464,148.495" id="Fill-47" fill="#BFD6D5" mask="url(#mask-4)"></path>
            <polyline id="Fill-49" fill="#BFD6D5" mask="url(#mask-4)" points="65.266 129.592 154.776 0 154.777 0 65.266 129.592"></polyline>
            <polyline id="Fill-50" fill="#BFD6D5" mask="url(#mask-4)" points="220.781 74.741 178.258 0 220.781 74.739 220.781 74.741"></polyline>
            <path d="M51.712,149.216 L39.125,112.623 L40.043,112.218 L52.014,147.019 L153.561,0 L154.776,0 L53.543,146.565 L51.612,147.685 L52.114,148.549 L52.211,148.493 L52.047,148.731 L52.012,148.781 L51.712,149.216 M38.799,111.674 L38.748,111.528 L39.138,111.524 L38.799,111.674 M38.406,110.532 L0.385,0 L1.442,0 L39.459,110.521 L38.406,110.532" id="Fill-51" fill="#BFD6D5" mask="url(#mask-4)"></path>
            <polyline id="Fill-52" fill="#86B3B8" mask="url(#mask-4)" points="39.125 112.623 38.799 111.674 39.138 111.524 38.748 111.528 38.406 110.532 39.459 110.521 40.043 112.218 39.125 112.623"></polyline>
            <polyline id="Fill-53" fill="#BFD6D5" mask="url(#mask-4)" points="52.114 148.549 51.612 147.685 197.445 63.113 173.585 0 174.654 0 198.68 63.553 54.52 147.155 52.999 148.036 52.211 148.493 52.114 148.549"></polyline>
            <polyline id="Fill-54" fill="#BFD6D5" mask="url(#mask-4)" points="223.574 81.674 177.107 0 178.258 0 220.781 74.741 220.781 74.739 201.794 0 202.826 0 222.645 78.015 222.662 78.084 222.178 78.207 222.612 77.96 222.178 78.207 222.662 78.084 223.573 81.669 223.574 81.674"></polyline>
        </g>
        <path d="M997.941,455.487 L923.797,394.793 L924.607,394.163 L997.516,453.846 L1015.08,409.518 L1015.57,410.993 L997.941,455.487 M923.003,394.143 L853.394,337.16 L857,335.87 L858.723,336.316 L855.395,337.506 L923.813,393.513 L923.003,394.143 M860.399,335.716 L858.676,335.27 L904.228,318.973 L905.188,319.692 L860.399,335.716 M906.317,319.288 L905.357,318.569 L976.358,293.167 L976.674,294.116 L906.317,319.288" id="Fill-56" fill="#BFD6D5"></path>
        <path d="M923.797,394.793 L923.003,394.143 L923.813,393.513 L924.607,394.163 L923.797,394.793 M860.399,335.716 L858.676,335.27 L860.399,335.716" id="Fill-57" fill="#86B3B8"></path>
        <path d="M858.723,336.316 L857,335.87 L858.676,335.27 L860.399,335.716 L858.723,336.316 M905.188,319.692 L904.228,318.973 L905.357,318.569 L906.317,319.288 L905.188,319.692" id="Fill-58" fill="#86B3B8"></path>
        <path d="M1016.15,409.547 L1015.65,408.072 L1074.09,260.617 L1074.71,259.041 L1073.89,259.334 L1025.7,276.578 L1024.46,277.02 L977.615,293.78 L977.3,292.83 L1023.33,276.363 L1024.56,275.922 L1050.65,266.588 L1075.02,258.9 L1074.8,261.541 L1074.26,262.895 L1016.15,409.547 M1076.29,257.785 L1076.14,257.468 L1076.46,257.355 L1076.29,257.785" id="Fill-59" fill="#BFD6D5"></path>
        <path d="M1053.35,524.513 L1015.57,410.993 L1015.08,409.518 L975.095,289.372 L1020.86,274.935 L1022.15,274.528 L1074.1,258.141 L1075.19,257.798 L1075.97,259.5 L1060.83,436.887 L1060.74,437.956 L1053.35,524.513 M1016.15,409.547 L1052.77,519.591 L1059.78,437.482 L1059.87,436.412 L1062.39,406.863 L1062.39,406.862 L1074.8,261.541 L1075.02,258.9 L1023.33,275.207 L1022.03,275.614 L976.364,290.02 L977.3,292.83 L977.615,293.78 L1015.65,408.072 L1016.15,409.547" id="Fill-60" fill="#BFD6D5"></path>
        <path d="M1465.77,259.873 L1462.5,258.706 L1460.3,257.919 L1369.69,225.591 L1370.15,224.691 L1459.36,256.523 L1382.04,201.291 L1382.49,200.389 L1463.94,258.565 L1465.77,259.873 M1368.74,225.252 L1302.87,201.748 L1302.66,201.672 L1302.82,201.201 L1303.22,200.901 L1302.82,201.201 L1302.66,201.672 L1302.51,201.622 L1302.08,201.042 L1264.33,150.705 L1265.44,150.526 L1303.13,200.781 L1369.2,224.353 L1368.74,225.252 M1381.21,200.703 L1302.65,144.586 L1304.05,144.361 L1381.67,199.801 L1381.21,200.703 M1263.65,149.8 L1210.76,79.282 L1210.58,79.04 L1209.69,77.852 L1208.24,75.924 L1210.31,77.402 L1210.47,77.517 L1210.7,77.679 L1211.28,78.098 L1302.89,143.534 L1301.49,143.758 L1212.92,80.492 L1264.76,149.622 L1263.65,149.8" id="Fill-61" fill="#BFD6D5"></path>
        <g id="Group-65" transform="translate(968.000000, 0.000000)">
            <mask id="mask-6" fill="white">
                <use xlink:href="#path-5"></use>
            </mask>
            <g id="Clip-63"></g>
            <path d="M266.73,215.582 L265.77,214.806 L213.12,172.153 L212.28,171.477 L204.7,165.333 L206.03,165.122 L212.61,170.454 L213.45,171.13 L266.06,213.752 L277.49,153.712 L278.54,153.544 L266.94,214.468 L266.73,215.582 M203.66,164.487 L188,151.807 L187.22,151.177 L139.07,112.172 L139.5,111.23 L187.83,150.376 L188.6,151.006 L204.98,164.275 L203.66,164.487 M277.69,152.667 L278.51,148.362 L230.21,118.586 L229.34,118.045 L218.39,111.293 L217.53,110.766 L182.31,89.048 L181.02,88.254 L156.73,73.276 L157.15,72.359 L182.51,87.999 L183.8,88.793 L218.13,109.963 L218.99,110.49 L229.65,117.064 L230.53,117.604 L279.62,147.872 L278.74,152.5 L277.69,152.667" id="Fill-62" fill="#BFD6D5" mask="url(#mask-6)"></path>
            <path d="M138.27,111.521 L123.07,99.206 L122.03,98.369 L0.601,0 L2.19,0 L123.35,98.144 L124.38,98.981 L138.7,110.58 L138.27,111.521 M155.87,72.747 L37.89,0 L39.79,0 L156.29,71.83 L155.87,72.747" id="Fill-64" fill="#BFD6D5" mask="url(#mask-6)"></path>
        </g>
        <path d="M1300.5,318.862 L1299.12,318.728 L1297.85,318.604 L1189.8,308.105 L1188.74,308.002 L1148.67,304.108 L1147.57,304.001 L1134.63,302.744 L1133.49,302.634 L1130.11,302.305 L1129.64,301.255 L1134.15,301.692 L1135.29,301.803 L1147.2,302.961 L1148.3,303.068 L1189.2,307.042 L1190.26,307.145 L1297.36,317.552 L1251.66,279.493 L1250.58,278.595 L1217.41,250.969 L1216.62,250.31 L1216.05,249.841 L1215.23,249.155 L1168.87,210.545 L1168.04,209.855 L1168.04,209.854 L1133.06,180.728 L1123.93,173.121 L1125.24,172.912 L1133.66,179.927 L1216.17,248.635 L1216.99,249.321 L1217.07,249.382 L1217.86,250.041 L1251.98,278.457 L1253.06,279.355 L1298.9,317.527 L1299.25,317.823 L1298.93,318.207 L1298.98,317.709 L1298.93,318.207 L1299.25,317.823 L1299.67,318.168 L1300.5,318.862 M1128.97,302.194 L1094.07,298.803 L1075.97,259.5 L1075.19,257.798 L1008.68,113.334 L1008.24,112.393 L980.684,52.535 L1045,106.091 L1046.01,106.933 L1091.25,144.61 L1090.82,145.554 L983.441,56.132 L1009.26,112.218 L1009.7,113.159 L1075.9,256.945 L1076.14,257.468 L1076.29,257.785 L1076.37,257.977 L1076.37,257.978 L1076.4,258.036 L1077.04,259.431 L1094.74,297.863 L1128.5,301.144 L1128.97,302.194 M1122.91,172.271 L1091.62,146.217 L1092.05,145.273 L1124.22,172.062 L1122.91,172.271" id="Fill-66" fill="#BFD6D5"></path>
        <path d="M1326.14,522.51 L1228.79,514.325 L1223.56,517.549 L1223.21,517.76 L1222.69,516.908 L1223.22,516.583 L1227.11,514.184 L1223.24,513.859 L1223.73,512.897 L1228.54,513.301 L1326.14,453.153 L1326.14,454.327 L1230.22,513.442 L1326.14,521.507 L1326.14,522.51 M1222.53,513.614 L1221.97,513.026 L1166.74,454.941 L1166.05,454.216 L1134.98,421.542 L1134.25,420.768 L1123.09,409.032 L1141.88,404.974 L1143.12,404.706 L1171.61,398.554 L1172.02,399.488 L1142.57,405.849 L1141.33,406.117 L1125.04,409.634 L1134.71,419.806 L1135.45,420.58 L1166.75,453.498 L1167.44,454.223 L1219.48,508.96 L1221.16,510.726 L1221.33,510.899 L1222.53,513.614 M1327.14,453.711 L1327.14,452.536 L1428.45,390.105 L1429.18,390.826 L1327.14,453.711 M1173.02,399.273 L1172.61,398.338 L1180.1,396.72 L1181.09,396.508 L1233.04,385.289 L1234.8,384.908 L1294.14,372.094 L1293.56,373.244 L1233.54,386.203 L1231.78,386.584 L1181.42,397.459 L1180.44,397.671 L1173.02,399.273 M1430.06,390.285 L1429.32,389.564 L1543.32,319.311 L1391.14,352.171 L1390.29,351.333 L1548.81,317.102 L1430.06,390.285 M1294.82,372.972 L1295.4,371.822 L1326.14,365.184 L1326.14,366.208 L1294.82,372.972 M1327.14,365.992 L1327.14,364.969 L1389.12,351.586 L1389.97,352.424 L1327.14,365.992" id="Fill-67" fill="#BFD6D5"></path>
        <path d="M1326.14,522.561 L1326.14,311.313 L1327.14,309.345 L1327.14,521.54 L1557.86,516.858 L1429.18,390.826 L1428.45,390.105 L1389.97,352.424 L1389.12,351.586 L1333.4,297.019 L1333.88,296.084 L1390.29,351.333 L1391.14,352.171 L1429.32,389.564 L1430.06,390.285 L1560.26,517.81 L1326.65,522.551 L1326.14,522.561 M1326.64,522.051 L1327.14,522.051 L1326.64,522.051 M1326.14,309.106 L1326.14,288.506 L1326.98,289.325 L1327.35,289.687 L1333.13,295.35 L1332.65,296.285 L1327.14,290.886 L1327.14,307.138 L1326.14,309.106" id="Fill-68" fill="#BFD6D5"></path>
        <path d="M1222.92,514.498 L1222.53,513.614 L1221.33,510.899 L1220.82,509.765 L1191.57,443.669 C1191.93,443.644 1192.28,443.609 1192.62,443.563 L1211.52,486.275 L1216.64,497.831 L1222.98,512.168 L1293.56,373.244 L1294.14,372.094 L1332.65,296.285 L1333.13,295.35 L1345.91,270.202 L1346.44,269.144 L1368.74,225.252 L1369.2,224.353 L1381.21,200.703 L1381.67,199.801 L1419.17,125.982 L1304.05,144.361 L1302.65,144.586 L1265.44,150.526 L1264.33,150.705 L1246.54,153.544 L1245.49,153.712 L1183.86,163.551 L1182.76,163.728 L1174.03,165.122 L1172.7,165.333 L1142.21,170.202 L1140.79,170.429 L1125.24,172.912 L1123.93,173.121 L1076.3,180.724 L1097.37,228.32 L1097.83,229.368 L1097.83,229.369 L1119.39,278.091 L1120.01,279.481 L1129.64,301.255 L1130.11,302.305 L1131.52,305.486 L1131.99,306.556 L1159.45,368.608 L1159.98,369.808 L1172.61,398.338 L1173.02,399.273 L1179.76,414.496 C1179.49,414.722 1179.23,414.956 1178.98,415.199 L1172.02,399.488 L1171.61,398.554 L1159.41,370.99 L1158.88,369.79 L1131.32,307.519 L1130.85,306.448 L1128.97,302.194 L1128.5,301.144 L1118.63,278.838 L1118.01,277.447 L1097.14,230.286 L1097.14,230.285 L1096.68,229.237 L1074.86,179.941 L1075.24,179.881 L1075.13,180.126 L1076.04,180.539 L1076.04,180.54 L1076.04,180.539 L1076.42,179.692 L1122.91,172.271 L1124.22,172.062 L1141.65,169.279 L1143.07,169.052 L1171.66,164.487 L1172.98,164.275 L1183.1,162.66 L1184.2,162.484 L1245.69,152.667 L1246.74,152.5 L1263.65,149.8 L1264.76,149.622 L1301.49,143.758 L1302.89,143.534 L1417.89,125.173 L1419.91,125.81 L1420.21,124.856 L1420.1,124.821 L1420.95,124.684 L1382.49,200.389 L1382.04,201.291 L1370.15,224.691 L1369.69,225.591 L1347.62,269.027 L1347.09,270.085 L1333.88,296.084 L1333.4,297.019 L1295.4,371.822 L1294.82,372.972 L1223.73,512.897 L1223.24,513.859 L1222.92,514.498" id="Fill-69" fill="#BFD6D5"></path>
        <polyline id="Fill-70" fill="#BFD6D5" points="1076.04 180.539 1075.13 180.126 1075.24 179.881 1090.82 145.554 1091.25 144.61 1106.27 111.521 1106.7 110.58 1123.87 72.747 1124.29 71.83 1140.22 36.723 1420.1 124.821 1420.21 124.856 1419.91 125.81 1417.89 125.173 1140.77 37.943 1125.15 72.359 1124.73 73.276 1115.31 94.035 1107.5 111.23 1107.07 112.172 1092.05 145.273 1091.62 146.217 1076.42 179.692 1076.04 180.54"></polyline>
        <path d="M440.376,826.65 L441.632,825.954 L441.984,826.118 L441.707,826.519 L440.376,826.65 M443.416,826.35 L443.345,826.149 L445.092,825.181 L500.218,819.746 L499.708,820.801 L443.416,826.35 M443.593,824.868 L443.593,824.868 L498.716,794.331 L443.593,824.868 M500.875,820.686 L501.384,819.631 L550.235,814.815 L551.314,815.713 L500.875,820.686 M552.711,815.575 L551.632,814.677 L605.192,809.397 L606.294,810.293 L552.711,815.575 M607.708,810.153 L606.606,809.257 L646.095,805.364 L645.558,806.422 L607.708,810.153 M646.739,806.305 L647.276,805.248 L759.948,794.139 L762.155,794.927 L646.739,806.305 M763.593,794.785 L762.453,793.971 L764.488,794.697 L763.593,794.785 M759.014,792.744 L726.48,781.136 L759.014,792.744 M745.396,788.947 L669.343,761.811 L745.396,788.947 M668.393,761.472 L648.189,754.263 L648.189,754.262 L668.393,761.472 M563.166,759.769 L602.521,737.968 L627.143,746.753 L602.52,737.968 L563.166,759.769" id="Fill-71" fill="#BFD6D5"></path>
        <path d="M443.345,826.149 L443.29,825.991 L443.482,825.714 L443.343,825.649 L468.519,746.766 L443.593,824.868 L514.882,785.375 L515.707,786.061 L443.345,826.149 M442.43,825.222 L442.43,825.222 L467.69,746.075 L442.43,825.222 M516.645,785.541 L515.821,784.855 L517.539,783.903 L516.784,785.464 L516.645,785.541 M518.301,784.624 L519.055,783.063 L551.034,765.347 L551.871,766.027 L518.301,784.624 M552.814,765.505 L551.977,764.824 L601.731,737.261 L563.978,686.924 L602.166,737.841 L602.308,737.892 L602.476,737.421 L602.876,737.121 L602.476,737.421 L602.308,737.892 L602.521,737.968 L552.814,765.505 M468.847,745.738 L468.847,745.737 L480.772,708.373 L468.847,745.738 M468.018,745.047 L468.018,745.047 L479.938,707.697 L468.018,745.047 M602.786,737.001 L602.785,737.001 L565.095,686.746 L602.786,737.001 M481.099,707.351 L481.098,707.351 L483.518,699.771 L481.099,707.351 M480.265,706.675 L480.264,706.675 L482.411,699.947 L482.412,699.947 L480.265,706.675 M482.752,698.88 L496.991,654.265 L496.991,654.266 L482.752,698.88 M483.858,698.704 L497.868,654.806 L483.858,698.704 M563.3,686.02 L510.412,615.502 L498.182,653.824 L498.181,653.824 L510.412,615.502 L563.3,686.02 M564.416,685.842 L559.234,678.932 L564.416,685.842 M497.304,653.284 L497.304,653.284 L508.854,617.096 L508.854,617.095 L497.304,653.284 M510.124,613.736 L509.963,613.621 L510.049,613.351 L510.231,613.594 L510.124,613.736" id="Fill-72" fill="#BFD6D5"></path>
        <path d="M457.802,1000 L456.407,1000 L465.702,990.435 L466.392,991.161 L457.802,1000 M414.385,999.667 L413.488,999.225 L433.898,956.988 L434.635,957.762 L414.385,999.667 M467.09,990.443 L466.4,989.718 L486.449,969.089 L486.885,970.075 L467.09,990.443 M487.637,969.302 L487.2,968.316 L490.849,964.561 L491.219,965.616 L487.637,969.302 M491.998,964.814 L491.628,963.76 L531.433,922.804 L533.198,922.423 L491.998,964.814 M435.1,956.8 L434.363,956.025 L440.978,942.336 L442.219,942.068 L435.1,956.8 M441.53,941.194 L458.533,906.009 L459.064,907.209 L442.77,940.926 L441.53,941.194 M532.691,921.509 L597.501,854.825 L598.775,854.949 L534.457,921.128 L532.691,921.509 M459.635,906.028 L459.104,904.828 L465.353,891.895 L465.821,893.227 L459.635,906.028 M466.435,891.956 L465.967,890.624 L488.391,844.222 L489.451,844.325 L466.435,891.956 M598.585,854.428 L598.585,854.428 L598.633,853.93 L598.585,854.428 L598.905,854.043 L598.549,853.747 L625.556,825.959 L551.871,766.027 L551.034,765.347 L534.224,751.674 L517.51,786.261 L516.718,785.602 L516.784,785.464 L533.426,751.026 L534.384,751.802 L534.596,750.687 L625.795,824.865 L625.795,827.148 L599.32,854.389 L598.905,854.043 L598.585,854.428 M489.915,843.365 L488.854,843.262 L516.269,786.53 L517.061,787.189 L501.384,819.631 L500.875,820.686 L489.915,843.365 M627.001,825.907 L626.628,825.543 L627.034,825.873 L627.001,825.907" id="Fill-73" fill="#BFD6D5"></path>
        <path d="M443.343,825.649 L443.135,825.552 L442.881,824.826 L442.563,825.284 L442.43,825.222 L467.69,746.075 L468.519,746.766 L443.343,825.649 M376.028,794.198 L376.028,794.198 L396.796,766.506 L396.797,766.506 L376.028,794.198 M375.552,793.165 L375.552,793.165 L396.332,765.457 L396.333,765.457 L375.552,793.165 M397.484,765.589 L397.484,765.589 L433.483,717.59 L433.484,717.59 L397.484,765.589 M397.02,764.54 L397.02,764.54 L432.714,716.949 L397.02,764.54 M468.847,745.737 L468.018,745.047 L479.938,707.697 L480.772,708.373 L468.847,745.737 M434.084,716.789 L434.084,716.788 L441.859,706.422 L434.084,716.789 M481.098,707.351 L480.265,706.675 L482.412,699.947 L483.518,699.771 L481.098,707.351 M442.722,705.272 L455.655,688.027 L442.722,705.271 L442.722,705.272 M482.752,698.88 L496.991,654.266 L497.868,654.806 L483.858,698.704 L482.752,698.88 M456.256,687.226 L456.256,687.226 L486.04,647.513 L456.256,687.226 M498.181,653.824 L497.304,653.284 L508.854,617.095 L486.643,646.71 L510.231,615.26 L510.412,615.502 L498.181,653.824 M510.351,613.898 L510.124,613.736 L510.231,613.594 L511.607,611.759 L510.957,613.794 L510.351,613.898" id="Fill-74" fill="#BFD6D5"></path>
        <path d="M344.502,968.367 L344.826,966.504 L345.548,966.859 L344.502,968.367 M346.125,966.028 L346.125,966.028 L362.046,943.082 L346.125,966.029 M344.909,966.026 L373.914,799.115 L374.45,797.761 L373.762,805.829 L346.263,964.074 L362.217,941.081 L362.217,941.082 L344.909,966.026 M363.191,941.432 L363.191,941.432 L374.744,924.781 L363.191,941.432 M363.361,939.432 L363.361,939.432 L430.502,842.668 L363.361,939.432 M431.169,841.705 L431.169,841.705 L433.148,838.854 L431.169,841.705 M433.801,837.912 L433.801,837.912 L441.707,826.519 L441.984,826.118 L441.632,825.954 L419.661,815.701 L419.046,814.31 L442.43,825.222 L442.563,825.284 L442.323,825.631 L433.801,837.912 M443.29,825.991 L443.135,825.552 L443.343,825.649 L443.482,825.714 L443.29,825.991 M418.283,815.058 L376.697,795.651 L376.054,794.256 L376.059,794.25 L417.667,813.667 L418.283,815.058" id="Fill-75" fill="#BFD6D5"></path>
        <path d="M504.344,1000 L503.284,1000 L480.088,933.891 L481.074,933.678 L504.344,1000 M415.061,1000 L412.798,1000 L360.396,974.176 L360.487,973.106 L414.385,999.667 L415.061,1000 M359.432,973.702 L345.548,966.859 L344.826,966.504 L344.641,966.412 L362.217,941.082 L362.046,943.082 L346.125,966.028 L359.524,972.631 L359.432,973.702 M363.191,941.432 L363.361,939.432 L430.502,842.668 L430.976,843.739 L363.191,941.432 M479.755,932.94 L447.223,840.221 L448.32,840.328 L480.74,932.727 L479.755,932.94 M431.643,842.776 L431.169,841.705 L433.148,838.854 L434.288,838.965 L431.643,842.776 M447.955,839.288 L446.858,839.181 L442.586,827.006 L434.941,838.023 L433.801,837.912 L442.323,825.631 L442.563,825.284 L442.881,824.826 L443.135,825.552 L443.29,825.991 L443.345,826.149 L443.416,826.35 L447.955,839.288 M442.733,825.916 L442.261,826.081 L442.733,825.916" id="Fill-76" fill="#BFD6D5"></path>
        <path d="M373.759,794.36 L245.834,742.725 L373.759,794.36 L373.759,794.36 M376.028,794.198 L376.028,794.197 L375.939,794.005 L376.109,793.575 L375.793,793.688 L375.552,793.165 L396.333,765.457 L396.796,766.506 L376.028,794.198 M374.092,793.417 L103.652,684.256 L105.173,683.374 L293.145,651.142 L293.672,652.067 L104.336,684.532 L374.092,793.417 M397.484,765.589 L397.02,764.54 L432.714,716.949 L433.483,717.59 L397.484,765.589 M434.084,716.788 L433.315,716.148 L440.439,706.649 L441.859,706.422 L434.084,716.788 M441.302,705.498 L454.878,687.397 L455.655,688.027 L442.722,705.272 L441.302,705.498 M456.256,687.226 L455.478,686.596 L485.186,646.986 L486.04,647.513 L456.256,687.226 M102.117,684.715 L100.696,684.142 L101.852,683.943 L101.961,684.26 L101.749,684.566 L102.117,684.715 M294.72,651.887 L294.194,650.963 L307.897,648.613 L308.33,649.554 L294.72,651.887 M309.35,649.379 L308.917,648.438 L343.353,642.533 L344.364,643.375 L309.35,649.379 M486.643,646.71 L485.788,646.183 L509.076,615.132 L451.453,625.013 L450.165,624.218 L509.34,614.072 L510.231,615.26 L486.643,646.71 M345.66,643.153 L344.649,642.311 L389.687,634.589 L390.721,635.426 L345.66,643.153 M392.032,635.201 L390.998,634.364 L413.769,630.459 L413.269,631.56 L392.032,635.201 M414.46,631.356 L414.96,630.255 L448.674,624.474 L449.962,625.268 L414.46,631.356 M510.937,614.317 L510.351,613.898 L510.957,613.794 L511.384,613.721 L510.937,614.317" id="Fill-77" fill="#BFD6D5"></path>
        <path d="M347.105,826.552 L324.115,813.239 L325.348,812.798 L346.903,825.28 L373.549,795.553 L374.366,795.261 L373.742,796.836 L347.105,826.552 M322.981,812.583 L321.688,811.834 L322.98,811.426 L324.215,812.141 L322.981,812.583 M320.516,811.155 L102.665,685.001 L102.7,684.95 L373.759,794.36 L108.882,687.446 L321.808,810.748 L320.516,811.155 M374.092,793.417 L103.651,684.256 L103.651,684.256 L374.092,793.417" id="Fill-78" fill="#BFD6D5"></path>
        <path d="M373.759,794.36 L102.7,684.95 L102.864,684.713 L103.651,684.256 L374.092,793.417 L293.672,652.067 L293.145,651.142 L274.227,617.892 L273.316,614.304 L272.831,614.427 L273.266,614.18 L272.831,614.427 L273.316,614.304 L273.299,614.237 L371.701,787.192 L374.844,794.018 L373.759,794.36 M102.117,684.715 L101.749,684.566 L101.961,684.26 L102.117,684.715 M102.667,683.238 L102.667,683.238 L197.09,546.533 L102.667,683.238 M271.435,610.963 L247.724,569.287 L247.725,569.287 L271.435,610.961 L271.435,610.963 M246.657,567.412 L246.657,567.411 L240.432,556.47 L246.657,567.412 M239.006,553.963 L239.005,553.962 L218.363,517.681 L218.364,517.681 L239.006,553.963 M227.562,535.871 L220.448,523.367 L227.562,535.871" id="Fill-79" fill="#BFD6D5"></path>
        <path d="M102.365,685.435 L102.117,684.715 L101.961,684.26 L40.659,506.05 L41.15,504.401 L102.667,683.238 L201.782,539.74 L202.624,540.281 L104.196,682.785 L102.265,683.904 L102.766,684.769 L102.864,684.713 L102.7,684.95 L102.665,685.001 L102.365,685.435 M203.192,539.458 L202.351,538.917 L208.68,529.753 L209.449,530.4 L203.192,539.458 M210.02,529.573 L209.251,528.926 L216.975,517.744 L165.908,492.456 L165.907,492.456 L217.242,517.876 L217.299,518.508 L217.486,518.363 L217.584,518.621 L210.02,529.573 M217.136,516.708 L162.685,489.744 L217.136,516.708 M40.1,504.423 L9.77,416.251 L11.128,417.124 L40.59,502.775 L40.1,504.423 M162.133,490.587 L60.27,440.145 L162.133,490.587 L162.133,490.587 M158.91,487.875 L87.288,452.408 L158.91,487.875 M59.361,439.695 L10.584,415.541 L10.603,415.597 L10.289,415.395 L59.361,439.695 M9.092,414.28 L8.846,413.565 L9.589,413.933 L9.41,414.141 L9.092,414.28" id="Fill-80" fill="#BFD6D5"></path>
        <path d="M102.766,684.769 L102.265,683.904 L104.196,682.785 L248.097,599.333 L233.209,559.952 L234.622,560.86 L249.332,599.772 L103.652,684.256 L103.651,684.256 L102.864,684.713 L102.766,684.769 M234.028,559.289 L232.615,558.38 L227.909,545.933 L229.477,547.252 L234.028,559.289 M228.753,545.335 L227.185,544.016 L217.584,518.621 L217.486,518.363 L217.566,518.301 L220.448,523.367 L228.753,545.335" id="Fill-81" fill="#BFD6D5"></path>
        <path d="M217.242,517.876 L165.907,492.456 L162.685,489.744 L217.136,516.708 L217.242,517.876 M162.132,490.587 L60.27,440.145 L60.559,439.173 L158.91,487.875 L162.132,490.587 M59.361,439.695 L10.289,415.395 L9.782,415.069 L9.916,415.01 L10.896,414.579 L59.65,438.722 L59.361,439.695 M9.028,414.584 L8.774,414.421 L9.092,414.28 L9.41,414.141 L9.028,414.584 M141.697,355.962 L198.336,331.053 L141.697,355.962" id="Fill-82" fill="#BFD6D5"></path>
        <path d="M7.891,415.901 L8.368,415.349 L8.684,415.552 L7.891,415.901 M9.782,415.069 L9.028,414.584 L34.183,385.427 L36.068,384.513 L36.198,384.622 L11.538,413.204 L50.042,396.271 L50.894,396.988 L10.896,414.579 L9.916,415.01 L9.782,415.069 M9.715,414.553 L10.093,414.879 L9.715,414.553 M51.915,396.54 L51.062,395.822 L75.63,385.017 L75.257,386.274 L51.915,396.54 M76.457,385.746 L76.831,384.49 L198.336,331.053 L200.258,331.053 L200.28,331.29 L76.457,385.746 M36.216,383.33 L36.086,383.221 L44.045,373.995 L45.561,373.769 L38.101,382.416 L36.216,383.33 M45.047,372.834 L53.005,363.61 L53.826,364.189 L46.563,372.608 L45.047,372.834 M54.363,363.345 L53.661,362.85 L53.708,362.795 L54.363,363.345 M55.128,362.681 L54.362,362.037 L59.517,356.062 L59.818,357.244 L55.128,362.681 M60.615,356.32 L60.314,355.138 L81.093,331.053 L82.414,331.053 L60.615,356.32 M202.237,330.43 L201.61,330.268 L201.659,330.21 L202.43,330.345 L202.237,330.43 M200.015,330.053 L194.948,330.053 L98.067,313.122 L98.354,312.157 L199.968,329.914 L200.015,330.053 M83.277,330.053 L81.956,330.053 L94.957,314.983 L96.842,313.732 L96.571,314.645 L83.277,330.053 M97.38,312.175 L97.521,312.011 L97.605,312.026 L97.38,312.175" id="Fill-83" fill="#BFD6D5"></path>
        <path d="M217.299,518.508 L217.242,517.876 L214.987,493.071 L217.227,517.706 L217.566,518.301 L217.486,518.363 L217.299,518.508 M218.363,517.681 L218.203,517.4 L216.071,493.949 L218.13,516.597 L231.35,506.326 L232.148,506.972 L218.364,517.681 L218.363,517.681 M232.959,506.342 L232.161,505.696 L242.627,497.565 L242.896,498.622 L232.959,506.342 M244.477,497.394 L243.569,496.834 L371.579,397.383 C371,398.078 370.526,398.868 370.183,399.734 L244.477,497.394 M215.945,492.56 L215.945,492.56 L214.829,480.289 L215.945,492.56 M214.861,491.682 L214.861,491.681 L213.765,479.633 L214.861,491.682 M214.716,479.044 L214.716,479.044 L201.784,336.793 L214.716,479.044 M213.652,478.388 L213.652,478.388 L200.28,331.29 L200.258,331.053 L213.652,478.388 M374.538,395.085 L392.947,380.782 L201.407,331.248 L394.17,381.098 L377.163,394.311 C376.242,394.429 375.357,394.694 374.538,395.085 M394.058,380.553 L394.058,380.553 L394.357,380.152 L394.279,380.094 L395.168,380.323 L394.882,380.545 L394.357,380.152 L394.058,380.553" id="Fill-84" fill="#BFD6D5"></path>
        <path d="M396.389,381.672 L394.17,381.098 L201.407,331.248 L201.358,331.053 L201.415,331.053 L200.902,329.556 L249.637,271.87 L394.279,380.094 L394.357,380.152 L394.058,380.553 L394.183,380.069 L394.058,380.553 L394.357,380.152 L394.882,380.545 L396.389,381.672 M202.237,330.43 L391.728,379.434 L249.792,273.235 L201.659,330.21 L201.61,330.268 L202.237,330.43" id="Fill-85" fill="#BFD6D5"></path>
        <path d="M274.228,617.893 L245.909,568.12 L247.724,569.287 L271.435,610.963 L271.435,610.961 L263.411,579.375 L264.644,580.169 L273.299,614.237 L273.316,614.304 L272.831,614.427 L273.266,614.18 L272.831,614.427 L273.316,614.304 L274.227,617.892 L274.228,617.893 M264.283,578.747 L263.05,577.954 L262.257,574.834 L263.569,575.938 L264.283,578.747 M263.147,574.276 L261.835,573.171 L248.352,520.098 L249.651,521.151 L263.147,574.276 M246.657,567.411 L244.842,566.244 L238.224,554.612 L240.432,556.47 L246.657,567.411 M239.005,553.962 L236.798,552.105 L217.566,518.301 L217.227,517.706 L214.987,493.071 L216.071,493.949 L218.203,517.4 L239.005,553.962 M249.239,519.53 L247.94,518.478 L242.627,497.565 L242.586,497.403 L243.81,498.158 L249.239,519.53 M243.456,496.764 L242.232,496.01 L201.784,336.793 L214.716,479.044 L213.652,478.388 L200.258,331.053 L201.358,331.053 L201.407,331.248 L243.456,496.764 M215.945,492.56 L214.861,491.682 L213.765,479.633 L214.829,480.289 L215.945,492.56" id="Fill-86" fill="#BFD6D5"></path>
        <path d="M297.594,991.707 L153.047,873.38 L276.011,829.387 L276.327,830.336 L155.049,873.725 L297.169,990.066 L314.735,945.738 L315.226,947.213 L297.594,991.707 M315.799,945.768 L315.308,944.293 L374.366,795.261 L373.549,795.553 L325.348,812.798 L324.115,813.239 L277.268,829.999 L276.953,829.05 L322.981,812.583 L324.215,812.141 L350.314,802.804 L374.676,795.119 L374.45,797.761 L315.799,945.768 M375.939,794.005 L375.793,793.688 L376.109,793.575 L375.939,794.005" id="Fill-87" fill="#BFD6D5"></path>
        <polyline id="Fill-88" fill="#BFD6D5" points="358.192 1000 357.188 1000 359.432 973.702 359.524 972.631 362.217 941.082 362.217 941.081 374.676 795.119 322.98 811.426 321.688 811.834 276.017 826.24 276.953 829.05 277.268 829.999 333.848 1000 332.795 1000 274.748 825.592 320.516 811.155 321.808 810.748 373.758 794.36 373.759 794.36 374.844 794.018 375.628 795.721 358.192 1000"></polyline>
        <path d="M765.424,796.093 L762.155,794.927 L759.948,794.139 L669.343,761.811 L669.8,760.912 L759.014,792.744 L681.688,737.511 L682.146,736.609 L762.453,793.971 L763.593,794.785 L765.424,796.093 M668.393,761.472 L648.189,754.262 C647.943,753.8 647.677,753.351 647.39,752.916 L668.85,760.573 L668.393,761.472 M627.143,746.753 L602.521,737.968 L602.308,737.892 L602.476,737.421 L602.876,737.121 L602.476,737.421 L602.308,737.892 L602.166,737.841 L563.978,686.924 L565.095,686.746 L602.785,737.001 L602.786,737.001 L628.611,746.215 C628.111,746.372 627.622,746.552 627.143,746.753 M680.865,736.923 L602.301,680.806 L603.707,680.581 L681.323,736.021 L680.865,736.923 M563.3,686.02 L510.412,615.502 L510.231,615.26 L507.892,612.142 L509.963,613.621 L510.124,613.736 L510.351,613.898 L510.937,614.317 L602.548,679.753 L601.142,679.978 L512.569,616.712 L564.416,685.842 L563.3,686.02" id="Fill-89" fill="#BFD6D5"></path>
        <path d="M534.384,751.802 L480.772,708.373 L479.938,707.697 L472.353,701.553 L473.68,701.341 L480.264,706.675 L480.265,706.675 L481.098,707.351 L481.099,707.351 L533.714,749.972 L545.141,689.932 L546.191,689.764 L534.384,751.802 M471.309,700.707 L455.655,688.027 L454.878,687.397 L406.727,648.392 L407.154,647.451 L455.478,686.596 L456.256,687.226 L472.636,700.495 L471.309,700.707 M545.34,688.887 L546.159,684.582 L497.868,654.806 L496.991,654.266 L496.991,654.265 L486.04,647.513 L485.186,646.986 L424.383,609.496 L424.8,608.578 L450.165,624.218 L451.453,625.013 L497.304,653.284 L498.181,653.824 L498.182,653.824 L547.27,684.092 L546.39,688.72 L545.34,688.887 M405.924,647.741 L390.721,635.426 L389.687,634.589 L249.651,521.151 L248.352,520.098 L232.148,506.972 L231.35,506.326 L149.4,439.941 L149.715,439.553 L149.4,439.941 L149.977,439.127 L242.232,496.01 L243.456,496.764 L243.569,496.834 L376.628,578.877 C377.407,579.979 378.35,580.957 379.423,581.774 L243.81,498.158 L242.586,497.403 L156.076,444.062 L214.861,491.681 L214.861,491.682 L232.161,505.696 L232.959,506.342 L390.998,634.364 L392.032,635.201 L406.351,646.8 L405.924,647.741 M423.525,608.967 L381.635,583.139 C382.821,583.717 384.108,584.123 385.461,584.323 L423.942,608.049 L423.525,608.967" id="Fill-90" fill="#BFD6D5"></path>
        <path d="M600.153,855.083 L598.775,854.949 L597.501,854.825 L489.451,844.325 L488.391,844.222 L448.32,840.328 L447.223,840.221 L434.288,838.965 L433.148,838.854 L429.762,838.525 L429.297,837.475 L433.801,837.912 L434.941,838.023 L446.858,839.181 L447.955,839.288 L488.854,843.262 L489.915,843.365 L597.017,853.773 L551.314,815.713 L550.235,814.815 L517.061,787.189 L516.269,786.53 L515.707,786.061 L514.882,785.375 L468.519,746.766 L467.69,746.075 L433.484,717.59 L433.483,717.59 L432.714,716.949 L423.578,709.341 L424.89,709.132 L433.315,716.148 L434.084,716.788 L434.084,716.789 L468.018,745.047 L468.847,745.737 L468.847,745.738 L516.645,785.541 L516.718,785.602 L517.51,786.261 L551.632,814.677 L552.711,815.575 L598.549,853.747 L598.905,854.043 L598.585,854.428 L598.633,853.93 L598.585,854.428 L598.905,854.043 L599.32,854.389 L600.153,855.083 M428.619,838.414 L393.723,835.023 L281.322,590.895 L281.444,590.973 L282.037,590.17 L390.904,680.83 L390.475,681.774 L283.093,592.352 L375.939,794.005 L376.028,794.197 L376.054,794.256 L376.697,795.651 L394.392,834.083 L428.154,837.364 L428.619,838.414 M422.558,708.491 L391.272,682.438 L391.701,681.493 L423.869,708.282 L422.558,708.491" id="Fill-91" fill="#BFD6D5"></path>
        <path d="M610.457,1000 L608.552,1000 L625.795,989.373 L625.795,990.548 L610.457,1000 M476.177,1000 L474.797,1000 L434.635,957.762 L433.898,956.988 L422.739,945.252 L441.53,941.194 L442.77,940.926 L471.263,934.774 L471.676,935.708 L442.219,942.068 L424.691,945.853 L466.4,989.718 L467.09,990.443 L476.177,1000 M626.795,989.931 L626.795,988.757 L659.483,968.612 C658.981,969.243 658.528,969.914 658.129,970.621 L626.795,989.931 M668.364,963.138 L728.099,926.325 L728.835,927.046 L670.756,962.839 C669.94,962.876 669.142,962.978 668.364,963.138 M472.674,935.492 L472.261,934.558 L479.755,932.94 L480.74,932.727 L532.691,921.509 L534.457,921.128 L593.795,908.315 L593.211,909.464 L533.198,922.423 L531.433,922.804 L481.074,933.678 L480.088,933.891 L472.674,935.492 M729.712,926.505 L728.976,925.784 L774.261,897.876 L775.08,898.546 L729.712,926.505 M775.98,897.991 L775.162,897.321 L842.97,855.532 L748.921,875.84 L747.932,875.031 L848.461,853.323 L775.98,897.991 M690.797,888.391 L689.941,887.553 L746.683,875.3 L747.672,876.11 L690.797,888.391" id="Fill-92" fill="#BFD6D5"></path>
        <path d="M775.08,898.546 L774.261,897.876 L775.162,897.321 L775.98,897.991 L775.08,898.546 M747.672,876.11 L746.683,875.3 L747.932,875.031 L748.921,875.84 L747.672,876.11" id="Fill-93" fill="#86B3B8"></path>
        <path d="M594.471,909.192 L595.055,908.042 L625.795,901.405 L625.795,902.428 L594.471,909.192 M626.795,902.212 L626.795,901.189 L688.77,887.806 L689.626,888.644 L626.795,902.212" id="Fill-94" fill="#BFD6D5"></path>
        <path d="M804.75,1000 L803.321,1000 L633.057,833.238 L633.531,832.304 L689.941,887.553 L690.797,888.391 L804.75,1000 M626.795,1000 L625.795,1000 L625.795,847.533 L626.795,845.564 L626.795,1000 M625.795,845.324 L625.795,824.726 L626.628,825.543 L627.001,825.907 L632.782,831.57 L632.307,832.505 L626.795,827.106 L626.795,843.355 L625.795,845.324" id="Fill-95" fill="#BFD6D5"></path>
        <path d="M548.339,1000 L547.217,1000 L706.237,686.978 L707.104,687.48 L548.339,1000 M501.222,1000 L500.128,1000 L396.797,766.506 L396.796,766.506 L396.333,765.457 L396.332,765.457 L374.517,716.161 L374.893,716.101 L374.781,716.346 L375.692,716.759 L376.077,715.912 L422.558,708.491 L423.869,708.282 L441.302,705.498 L442.722,705.272 L442.722,705.271 L471.309,700.707 L472.636,700.495 L482.752,698.88 L483.858,698.704 L545.34,688.887 L546.39,688.72 L563.3,686.02 L564.416,685.842 L601.142,679.978 L602.548,679.753 L674.048,668.338 L675.419,669.132 L603.707,680.581 L602.301,680.806 L565.095,686.746 L563.978,686.924 L546.191,689.764 L545.141,689.932 L483.518,699.771 L482.412,699.947 L482.411,699.947 L473.68,701.341 L472.353,701.553 L441.859,706.422 L440.439,706.649 L424.89,709.132 L423.578,709.341 L375.957,716.944 L487.2,968.316 L487.637,969.302 L501.222,1000 M707.558,686.587 L706.691,686.085 L708.759,682.014 L709.69,682.39 L707.558,686.587 M710.145,681.495 L709.214,681.119 L718.824,662.201 L678.354,668.663 L676.556,667.937 L717.543,661.393 L719.565,662.029 L719.865,661.076 L719.753,661.04 L720.605,660.904 L710.145,681.495" id="Fill-96" fill="#BFD6D5"></path>
        <polyline id="Fill-97" fill="#86B3B8" points="709.69 682.39 708.759 682.014 709.69 682.39"></polyline>
        <path d="M707.104,687.48 L706.237,686.978 L706.691,686.085 L707.558,686.587 L707.104,687.48 M675.419,669.132 L674.048,668.338 L674.641,668.243 L676.439,668.969 L675.419,669.132" id="Fill-98" fill="#86B3B8"></path>
        <path d="M709.69,682.39 L708.759,682.014 L709.214,681.119 L710.145,681.495 L709.69,682.39 M676.439,668.969 L674.641,668.243 L676.556,667.937 L678.354,668.663 L676.439,668.969" id="Fill-99" fill="#86B3B8"></path>
        <path d="M375.692,716.759 L374.781,716.346 L374.893,716.101 L390.475,681.774 L390.904,680.83 L439.878,572.943 L577.241,616.181 C576.872,616.401 576.515,616.639 576.171,616.893 L440.422,574.163 L376.077,715.912 L375.692,716.759 M719.565,662.029 L717.543,661.393 L713.741,660.196 L715.897,659.827 L719.753,661.04 L719.865,661.076 L719.565,662.029 M711.655,659.54 L694.93,654.275 L696.102,653.596 L713.811,659.17 L711.655,659.54 M693.638,653.868 L683.99,650.831 L684.584,649.97 L694.81,653.189 L693.638,653.868 M682.991,650.517 L665.391,644.977 L664.986,643.801 L683.586,649.656 L682.991,650.517 M664.204,644.604 L596.473,623.284 C596.335,622.875 596.178,622.476 596.002,622.087 L663.8,643.428 L664.204,644.604" id="Fill-100" fill="#BFD6D5"></path>
        <polyline id="Fill-101" fill="#86B3B8" points="713.741 660.196 711.655 659.54 713.811 659.17 715.897 659.827 713.741 660.196"></polyline>
        <polyline id="Fill-102" fill="#86B3B8" points="682.991 650.517 682.991 650.517 683.586 649.656 682.991 650.517"></polyline>
        <path d="M683.99,650.831 L682.991,650.517 L683.586,649.656 L684.584,649.97 L683.99,650.831 M665.391,644.977 L664.204,644.604 L663.8,643.428 L664.986,643.801 L665.391,644.977" id="Fill-103" fill="#86B3B8"></path>
        <polyline id="Fill-104" fill="#86B3B8" points="694.93 654.275 693.638 653.868 694.81 653.189 696.102 653.596 694.93 654.275"></polyline>
        <path d="M58.423,446.352 L57.547,445.789 L67.828,411.237 L68.663,411.939 L58.423,446.352 M93.029,330.053 L91.986,330.053 L96.842,313.732 L72.255,330.053 L70.447,330.053 L97.38,312.175 L97.605,312.026 L98.587,311.374 L93.029,330.053" id="Fill-105" fill="#BFD6D5"></path>
        <path d="M37.052,518.175 L0,507.124 L0,506.081 L36.378,516.931 L57.25,446.787 L58.126,447.35 L37.194,517.695 L37.052,518.175 M36.715,517.553 L36.715,517.553 L36.858,517.074 L36.715,517.553 M68.974,410.894 L68.14,410.192 L91.688,331.053 L92.732,331.053 L68.974,410.894 M16.714,366.921 L15.916,366.25 L36.951,352.287 L37.828,352.905 L16.714,366.921 M56.584,340.455 L56.323,339.428 L68.94,331.053 L70.748,331.053 L56.584,340.455" id="Fill-106" fill="#BFD6D5"></path>
        <path d="M0,378.015 L0,376.815 L15.048,366.826 L15.845,367.497 L0,378.015 M38.722,352.312 L37.845,351.694 L39.33,350.708 L40.128,351.378 L38.722,352.312 M40.997,350.802 L40.199,350.131 L55.44,340.014 L55.701,341.041 L40.997,350.802" id="Fill-107" fill="#BFD6D5"></path>
        <path d="M0,402 L0,400.889 L35.23,383.808 L36.068,384.513 L0,402 M37.053,384.035 L36.216,383.33 L38.101,382.416 L60.552,371.53 L63.566,371.081 L63.641,371.144 L37.053,384.035 M26.953,375.536 L26.953,375.536 L45.047,372.834 L46.563,372.608 L62.407,370.242 L26.953,375.536 M64.695,370.633 L64.154,370.251 L64.088,369.991 L66.878,369.575 L64.695,370.633" id="Fill-108" fill="#BFD6D5"></path>
        <polyline id="Fill-109" fill="#BFD6D5" points="0 379.561 0 379.561 25.634 375.733 0 379.561"></polyline>
        <polyline id="Fill-110" fill="#BFD6D5" points="25.634 375.733 25.634 375.733 0 354.164 0 352.857 26.953 375.536 25.634 375.733"></polyline>
        <polyline id="Fill-111" fill="#BFD6D5" points="281.444 590.973 281.322 590.895 264.644 580.169 263.411 579.375 247.725 569.287 247.724 569.287 245.909 568.12 234.622 560.86 233.209 559.952 202.624 540.281 201.782 539.74 58.126 447.35 57.25 446.787 9.77 416.251 8.684 415.552 8.368 415.349 0 409.967 0 408.778 8.774 414.421 9.028 414.584 9.782 415.069 10.289 415.395 10.603 415.597 57.547 445.789 58.423 446.352 202.351 538.917 203.192 539.458 246.657 567.411 246.657 567.412 275.421 585.91 162.133 490.587 162.132 490.587 36.198 384.622 36.068 384.513 26.654 376.592 27.974 376.395 36.086 383.221 36.216 383.33 51.062 395.822 51.915 396.54 165.907 492.456 165.908 492.456 239.005 553.962 239.006 553.963 261.835 573.171 263.147 574.276 282.037 590.17 281.444 590.973"></polyline>
        <path d="M53.164,331.053 L17.503,331.053 L16.313,330.053 L52.91,330.053 L53.164,331.053 M15.949,331.053 L8.582,331.053 L7.164,330.053 L14.759,330.053 L15.949,331.053 M27.375,214.291 L67.109,130.625 L68.222,130.613 L28.776,213.672 L27.375,214.291 M142.921,163.253 L131.53,129.974 L132.583,129.963 L143.839,162.847 L142.921,163.253" id="Fill-112" fill="#BFD6D5"></path>
        <polyline id="Fill-113" fill="#BFD6D5" points="0 274.265 0 271.934 24.851 219.606 25.237 221.124 0 274.265"></polyline>
        <path d="M201.415,331.053 L54.196,331.053 L53.942,330.053 L200.015,330.053 L199.968,329.914 L179.515,270.161 C179.72,270.217 179.931,270.262 180.145,270.298 C180.311,270.325 180.475,270.346 180.64,270.361 L201.415,331.053 M6.847,331.053 L0,331.053 L0,330.053 L5.429,330.053 L6.847,331.053 M176.048,260.032 L143.246,164.202 L144.164,163.797 L176.815,259.187 C176.536,259.445 176.279,259.727 176.048,260.032 M25.909,219.709 L25.523,218.19 L26.718,215.675 L28.119,215.056 L25.909,219.709 M67.586,129.62 L103.403,54.202 L105.408,52.077 L105.806,52.12 L105.746,51.719 L105.786,51.676 L132.242,128.967 L131.188,128.977 L105.14,52.877 L68.699,129.609 L67.586,129.62" id="Fill-114" fill="#BFD6D5"></path>
        <polyline id="Fill-115" fill="#BFD6D5" points="9.223 154.028 8.931 152.88 29.57 131.004 30.958 130.99 9.223 154.028"></polyline>
        <path d="M0,163.804 L0,162.347 L8.119,153.742 L8.41,154.89 L0,163.804 M30.523,129.994 L104.161,51.94 L105.408,52.077 L31.911,129.98 L30.523,129.994 M105.746,51.719 L105.652,51.098 L106.268,51.165 L105.786,51.676 L105.746,51.719" id="Fill-116" fill="#BFD6D5"></path>
        <g id="Group-120">
            <mask id="mask-8" fill="white">
                <use xlink:href="#path-7"></use>
            </mask>
            <g id="Clip-118"></g>
            <polyline id="Fill-117" fill="#BFD6D5" mask="url(#mask-8)" points="29.408 42.773 0 39.562 29.408 42.773"></polyline>
            <path d="M105.806,52.12 L105.408,52.077 L104.161,51.941 L0,40.568 L0,39.562 L104.623,50.985 L96.924,0 L97.936,0 L105.746,51.719 L105.806,52.12 M0,0.593 L0,0 L1.937,0 L0,0.593" id="Fill-119" fill="#BFD6D5" mask="url(#mask-8)"></path>
        </g>
        <path d="M7.68,224.084 C7.446,223.817 7.2,223.561 6.942,223.317 L23.892,215.83 L24.141,216.813 L7.68,224.084 M25.069,216.403 L24.819,215.42 L27.375,214.291 L28.776,213.672 L142.921,163.253 L143.839,162.847 L220.29,129.077 L132.583,129.963 L131.53,129.974 L68.222,130.613 L67.109,130.625 L30.958,130.99 L29.57,131.004 L3.441,131.268 L3.187,130.27 L30.523,129.994 L31.911,129.98 L67.586,129.62 L68.699,129.609 L131.188,128.977 L132.242,128.967 L222.71,128.053 L225.14,128.028 L144.164,163.797 L143.246,164.202 L26.718,215.675 L25.069,216.403" id="Fill-121" fill="#BFD6D5"></path>
        <polyline id="Fill-122" fill="#BFD6D5" points="0 131.303 0 130.302 2.158 130.281 2.412 131.278 0 131.303"></polyline>
        <polyline id="Fill-123" fill="#BFD6D5" points="64.582 371.935 63.641 371.144 63.566 371.081 64.335 370.966 64.582 371.935"></polyline>
        <polyline id="Fill-124" fill="#BFD6D5" points="64.154 370.251 54.363 363.345 53.708 362.795 40.128 351.378 39.33 350.708 0 317.646 0 316.339 54.362 362.037 55.128 362.681 62.848 369.17 0.568 124.02 0 123.972 0 122.968 1.362 123.085 64.088 369.991 64.154 370.251"></polyline>
        <polyline id="Fill-125" fill="#BFD6D5" points="0 380.572 0 379.561 26.953 375.536 62.407 370.242 37.828 352.905 36.951 352.287 0 326.223 0 324.999 7.164 330.053 37.845 351.694 38.722 352.312 53.661 362.85 54.363 363.345 64.695 370.633 65.022 370.863 64.335 370.966 63.566 371.081 45.561 373.769 44.045 373.995 26.654 376.592 0 380.572"></polyline>
        <path d="M718.012,856 C718.012,852.75 720.646,850.117 723.896,850.117 C727.145,850.117 729.778,852.75 729.778,856 C729.778,859.248 727.145,861.883 723.896,861.883 C720.646,861.883 718.012,859.248 718.012,856" id="Fill-126" fill="#196D80"></path>
        <path d="M938.877,776.865 C938.877,773.438 941.656,770.658 945.084,770.658 C948.512,770.658 951.291,773.438 951.291,776.865 C951.291,780.293 948.512,783.072 945.084,783.072 C941.656,783.072 938.877,780.293 938.877,776.865" id="Fill-129" fill="#196D80"></path>
        <path d="M860.679,973.334 C860.679,970.084 863.313,967.451 866.563,967.451 C869.812,967.451 872.445,970.084 872.445,973.334 C872.445,976.582 869.812,979.217 866.563,979.217 C863.313,979.217 860.679,976.582 860.679,973.334" id="Fill-131" fill="#196D80"></path>
        <path d="M938.627,699 C938.627,695.434 941.519,692.543 945.084,692.543 C948.65,692.543 951.541,695.434 951.541,699 C951.541,702.566 948.65,705.457 945.084,705.457 C941.519,705.457 938.627,702.566 938.627,699" id="Fill-133" fill="#196D80"></path>
        <path d="M1111.98,587.5 C1111.98,583.451 1115.26,580.168 1119.31,580.168 C1123.36,580.168 1126.64,583.451 1126.64,587.5 C1126.64,591.549 1123.36,594.832 1119.31,594.832 C1115.26,594.832 1111.98,591.549 1111.98,587.5" id="Fill-138" fill="#196D80"></path>
        <path d="M1109.23,671.875 C1109.23,667.066 1113.13,663.168 1117.94,663.168 C1122.75,663.168 1126.64,667.066 1126.64,671.875 C1126.64,676.684 1122.75,680.582 1117.94,680.582 C1113.13,680.582 1109.23,676.684 1109.23,671.875" id="Fill-139" fill="#196D80"></path>
        <path d="M535.731,312.999 C535.731,309.228 538.791,306.17 542.563,306.17 C546.334,306.17 549.393,309.228 549.393,312.999 C549.393,316.771 546.334,319.831 542.563,319.831 C538.791,319.831 535.731,316.771 535.731,312.999" id="Fill-148" fill="#196D80"></path>
        <g id="Group-152" transform="translate(461.000000, 0.000000)">
            <mask id="mask-10" fill="white">
                <use xlink:href="#path-9"></use>
            </mask>
            <g id="Clip-150"></g>
        </g>
        <path d="M813.689,582 C813.689,579.31 815.871,577.128 818.563,577.128 C821.254,577.128 823.436,579.31 823.436,582 C823.436,584.691 821.254,586.874 818.563,586.874 C815.871,586.874 813.689,584.691 813.689,582" id="Fill-158" fill="#196D80"></path>
        <path d="M758.189,614.5 C758.189,611.809 760.371,609.627 763.063,609.627 C765.754,609.627 767.936,611.809 767.936,614.5 C767.936,617.191 765.754,619.373 763.063,619.373 C760.371,619.373 758.189,617.191 758.189,614.5" id="Fill-159" fill="#196D80"></path>
        <path d="M791.944,288.466 C791.764,288.142 791.614,287.8 791.497,287.446 L797.965,279.789 C797.992,279.793 798.02,279.797 798.047,279.802 C798.393,279.859 798.727,279.946 799.047,280.058 L791.944,288.466" id="Fill-162" fill="#76ABB1"></path>
        <path d="M566.464,333.765 L559.763,328.127 C559.726,327.705 559.732,327.274 559.785,326.838 L567.732,333.525 C567.323,333.648 566.899,333.729 566.464,333.765" id="Fill-166" fill="#76ABB1"></path>
        <path d="M551.889,294.528 C551.706,294.489 551.526,294.446 551.348,294.397 L550.97,294.131 L554.332,287.051 L555.124,287.716 L551.889,294.528 M555.567,286.782 L554.776,286.117 L559.271,276.653 C559.556,276.838 559.831,277.037 560.094,277.249 L555.567,286.782" id="Fill-168" fill="#76ABB1"></path>
        <path d="M560.494,292.23 L555.124,287.716 L554.332,287.051 L545.588,279.7 C545.766,279.415 545.959,279.14 546.164,278.877 L561.207,291.523 C560.981,291.771 560.743,292.007 560.494,292.23" id="Fill-169" fill="#76ABB1"></path>
        <path d="M551.348,294.397 C549.057,293.777 547.145,292.371 545.861,290.527 L550.97,294.131 L551.348,294.397" id="Fill-170" fill="#76ABB1"></path>
        <path d="M680.88,148.906 C678.846,145.647 675.781,143.098 672.142,141.718 C673.102,141.056 674.258,140.676 675.476,140.676 C675.795,140.676 676.118,140.702 676.443,140.756 C679.648,141.286 681.818,144.315 681.287,147.52 C681.206,148.008 681.068,148.472 680.88,148.906" id="Fill-171" fill="#A7C7C7"></path>
        <path d="M180.64,270.361 C180.475,270.346 180.311,270.325 180.145,270.298 C179.931,270.262 179.72,270.217 179.515,270.161 L176.048,260.032 C176.279,259.727 176.536,259.445 176.815,259.187 L180.64,270.361" id="Fill-176" fill="#86B3B8"></path>
        <path d="M398.2,351.005 C397.631,350.706 397.109,350.335 396.645,349.906 L394.284,344.363 C394.292,344.018 394.324,343.67 394.382,343.319 C394.429,343.034 394.492,342.755 394.57,342.483 L398.2,351.005" id="Fill-179" fill="#76ABB1"></path>
        <path d="M370.183,399.734 C370.526,398.868 371,398.078 371.579,397.383 L374.538,395.085 C375.357,394.694 376.242,394.429 377.163,394.311 L370.183,399.734" id="Fill-183" fill="#86B3B8"></path>
        <path d="M808.575,484.308 C808.437,483.987 808.318,483.657 808.217,483.32 L812.475,480.013 L812.743,481.07 L808.575,484.308 M814.325,479.842 L813.416,479.281 L821.77,472.791 C822.072,472.972 822.362,473.169 822.639,473.382 L814.325,479.842" id="Fill-186" fill="#76ABB1"></path>
        <path d="M816.004,489.843 C815.85,489.825 815.696,489.804 815.542,489.778 C815.333,489.744 815.127,489.702 814.924,489.655 L812.475,480.013 L812.433,479.85 L813.657,480.605 L816.004,489.843 M813.303,479.212 L812.079,478.457 L810.905,473.835 C811.178,473.591 811.465,473.364 811.764,473.154 L813.303,479.212" id="Fill-187" fill="#76ABB1"></path>
        <path d="M823.855,486.893 L808.448,477.393 C808.57,477.077 808.707,476.77 808.861,476.473 L812.079,478.457 L813.303,479.212 L813.416,479.281 L814.325,479.842 L824.493,486.111 C824.294,486.384 824.081,486.645 823.855,486.893" id="Fill-188" fill="#76ABB1"></path>
        <path d="M756.937,844.71 C757.832,844.005 758.949,843.587 760.136,843.565 L756.937,844.71" id="Fill-194" fill="#76ABB1"></path>
        <path d="M953.002,927.659 C952.579,927.659 952.149,927.624 951.717,927.553 C947.655,926.881 944.88,923.199 945.52,919.332 C946.092,915.875 949.197,913.437 952.75,913.437 C953.173,913.437 953.602,913.471 954.034,913.543 C958.097,914.215 960.872,917.897 960.232,921.766 C959.661,925.223 956.555,927.659 953.002,927.659" id="Fill-201" fill="#A7C7C7"></path>
        <path d="M986.348,591.334 L987.34,591.334 C987.34,589.352 988.14,587.566 989.439,586.266 C990.739,584.967 992.524,584.166 994.506,584.166 C996.488,584.166 998.273,584.967 999.574,586.266 C1000.87,587.566 1001.67,589.352 1001.67,591.334 C1001.67,593.316 1000.87,595.101 999.574,596.401 C998.274,597.7 996.488,598.5 994.506,598.5 C992.524,598.5 990.738,597.7 989.438,596.401 C988.14,595.101 987.34,593.316 987.34,591.334 L985.356,591.334 C985.356,596.388 989.452,600.484 994.506,600.484 C999.56,600.484 1003.66,596.388 1003.66,591.334 C1003.66,586.28 999.56,582.183 994.506,582.182 C989.451,582.182 985.356,586.28 985.356,591.334 L986.348,591.334" id="Fill-210" fill="#196D80"></path>
        <path d="M994.506,586.15 C997.364,586.15 999.689,588.476 999.689,591.334 C999.689,594.191 997.364,596.516 994.506,596.516 C991.648,596.516 989.323,594.191 989.323,591.334 C989.323,588.476 991.648,586.15 994.506,586.15" id="Fill-211" fill="#196D80"></path>
        <path d="M622.49,545.248 L623.428,545.248 C623.428,543.375 624.184,541.687 625.412,540.458 C626.64,539.231 628.328,538.475 630.201,538.475 C632.074,538.475 633.762,539.231 634.99,540.458 C636.218,541.687 636.974,543.375 636.975,545.248 C636.974,547.121 636.218,548.809 634.99,550.038 C633.762,551.265 632.074,552.021 630.201,552.021 C628.328,552.021 626.64,551.265 625.412,550.038 C624.184,548.809 623.428,547.122 623.428,545.248 L621.553,545.248 C621.553,550.025 625.424,553.896 630.201,553.896 C634.977,553.896 638.849,550.025 638.85,545.248 C638.849,540.471 634.977,536.6 630.201,536.6 C625.424,536.6 621.553,540.471 621.553,545.248 L622.49,545.248" id="Fill-212" fill="#196D80"></path>
        <path d="M630.201,540.35 C632.902,540.35 635.1,542.547 635.1,545.248 C635.1,547.949 632.902,550.146 630.201,550.146 C627.5,550.146 625.303,547.949 625.303,545.248 C625.303,542.547 627.5,540.35 630.201,540.35" id="Fill-213" fill="#196D80"></path>
        <path d="M397.07,382.333 L398.508,382.333 C398.508,379.46 399.668,376.873 401.55,374.988 C403.435,373.106 406.023,371.946 408.895,371.946 C411.768,371.946 414.356,373.106 416.241,374.988 C418.123,376.873 419.283,379.46 419.283,382.333 C419.283,385.206 418.123,387.794 416.241,389.679 C414.356,391.561 411.768,392.721 408.895,392.721 C406.023,392.721 403.435,391.561 401.55,389.679 C399.668,387.794 398.508,385.206 398.508,382.333 L395.632,382.333 C395.633,389.659 401.57,395.596 408.895,395.597 C416.221,395.596 422.158,389.659 422.159,382.333 C422.158,375.008 416.221,369.071 408.895,369.07 C401.57,369.071 395.633,375.008 395.632,382.333 L397.07,382.333" id="Fill-214" fill="#196D80"></path>
        <path d="M408.895,374.821 C413.038,374.821 416.408,378.191 416.408,382.333 C416.408,386.476 413.038,389.845 408.895,389.845 C404.753,389.845 401.383,386.476 401.383,382.333 C401.383,378.191 404.753,374.821 408.895,374.821" id="Fill-215" fill="#196D80"></path>
        <path d="M624.25,353 L625.382,353 C625.383,350.738 626.296,348.7 627.778,347.216 C629.262,345.734 631.3,344.82 633.563,344.82 C635.825,344.82 637.863,345.734 639.347,347.216 C640.829,348.7 641.742,350.738 641.743,353 C641.742,355.263 640.829,357.301 639.347,358.784 C637.863,360.267 635.825,361.18 633.563,361.18 C631.3,361.18 629.262,360.267 627.778,358.784 C626.296,357.301 625.383,355.263 625.382,353 L623.118,353 C623.119,358.769 627.794,363.444 633.563,363.445 C639.331,363.444 644.006,358.769 644.007,353 C644.006,347.232 639.331,342.556 633.563,342.555 C627.794,342.556 623.119,347.232 623.118,353 L624.25,353" id="Fill-216" fill="#196D80"></path>
        <path d="M633.563,347.085 C636.824,347.085 639.478,349.738 639.478,353 C639.478,356.263 636.824,358.915 633.563,358.915 C630.301,358.915 627.646,356.263 627.646,353 C627.646,349.738 630.301,347.085 633.563,347.085" id="Fill-217" fill="#196D80"></path>
        <path d="M1097.1,97.851 C1096.27,97.851 1095.46,97.755 1094.68,97.573 L1102.81,96.178 C1101.17,97.234 1099.22,97.847 1097.12,97.851 C1097.11,97.851 1097.1,97.851 1097.1,97.851" id="Fill-221" fill="#ACC9CA"></path>
        <path d="M589.817,182.837 L584.191,160.69 C584.593,160.865 584.986,161.058 585.369,161.269 L590.577,181.768 C590.34,182.136 590.086,182.493 589.817,182.837" id="Fill-223" fill="#97BDC0"></path>
        <path d="M655.112,172.261 C654.816,172.033 654.527,171.796 654.246,171.55 L683.544,158.609 C683.536,158.984 683.517,159.358 683.486,159.727 L655.112,172.261" id="Fill-227" fill="#97BDC0"></path>
        <path d="M0,227.476 L0,226.383 L6.942,223.317 C7.2,223.561 7.446,223.817 7.68,224.084 L0,227.476" id="Fill-231" fill="#ACC9CA"></path>
        <path d="M596.473,623.284 L576.171,616.893 C576.515,616.639 576.872,616.401 577.241,616.181 L596.002,622.087 C596.178,622.476 596.335,622.875 596.473,623.284" id="Fill-235" fill="#ACC9CA"></path>
        <path d="M385.461,584.323 C384.108,584.123 382.821,583.717 381.635,583.139 L379.423,581.774 C378.35,580.957 377.407,579.979 376.628,578.877 L385.461,584.323" id="Fill-237" fill="#ACC9CA"></path>
        <path d="M1180.71,440.57 C1180.43,440.373 1180.17,440.169 1179.91,439.956 L1186.8,432.87 L1187.23,433.855 L1180.71,440.57 M1187.98,433.082 L1187.55,432.096 L1191.2,428.342 L1191.57,429.395 L1187.98,433.082 M1192.34,428.595 L1191.97,427.541 L1202.89,416.307 C1203.11,416.56 1203.33,416.819 1203.53,417.086 L1192.34,428.595" id="Fill-241" fill="#ACC9CA"></path>
        <path d="M1191.57,443.669 L1187.23,433.855 L1186.8,432.87 L1178.98,415.199 C1179.23,414.956 1179.49,414.722 1179.76,414.496 L1187.55,432.096 L1187.98,433.082 L1192.62,443.563 C1192.28,443.609 1191.93,443.644 1191.57,443.669" id="Fill-243" fill="#ACC9CA"></path>
        <polyline id="Fill-245" fill="#ACC9CA" points="648.189 754.263 627.143 746.753 648.189 754.262 648.189 754.263"></polyline>
        <path d="M648.189,754.262 L627.143,746.753 C627.622,746.552 628.111,746.372 628.611,746.215 L647.39,752.916 C647.677,753.351 647.943,753.8 648.189,754.262" id="Fill-246" fill="#ACC9CA"></path>
        <path d="M1112.54,893.671 L1132.9,872.712 C1132.89,873.226 1132.86,873.734 1132.82,874.238 L1114.06,893.539 C1113.56,893.6 1113.05,893.645 1112.54,893.671" id="Fill-248" fill="#97BDC0"></path>
        <path d="M658.129,970.621 C658.528,969.914 658.981,969.243 659.483,968.612 L668.364,963.138 C669.142,962.978 669.94,962.876 670.756,962.839 L658.129,970.621" id="Fill-252" fill="#ACC9CA"></path>
        <path d="M926.054,588.628 C923.346,588.029 921.107,586.176 919.981,583.708 L926.054,588.628" id="Fill-254" fill="#97BDC0"></path>
    </g>
</svg>